<?xml version="1.0" encoding="UTF-8" standalone="no"?>
<!DOCTYPE svg PUBLIC "-//W3C//DTD SVG 1.1//EN"
 "http://www.w3.org/Graphics/SVG/1.1/DTD/svg11.dtd">
<!-- Generated by graphviz version 2.43.0 (0)
 -->
<!-- Title: EMS_Architecture Pages: 1 -->
<svg width="1703pt" height="771pt"
 viewBox="0.00 0.00 1703.00 770.50" xmlns="http://www.w3.org/2000/svg" xmlns:xlink="http://www.w3.org/1999/xlink">
<g id="graph0" class="graph" transform="scale(1 1) rotate(0) translate(4 766.5)">
<title>EMS_Architecture</title>
<polygon fill="white" stroke="transparent" points="-4,4 -4,-766.5 1699,-766.5 1699,4 -4,4"/>
<g id="clust1" class="cluster">
<title>cluster_legend</title>
<polygon fill="none" stroke="black" stroke-dasharray="5,2" points="8,-678.5 8,-753.5 469,-753.5 469,-678.5 8,-678.5"/>
<text text-anchor="middle" x="238.5" y="-738.3" font-family="Times,serif" font-size="14.00">图例</text>
</g>
<g id="clust2" class="cluster">
<title>cluster_apps</title>
<polygon fill="#e8f5e9" stroke="black" points="477,-677.5 477,-754.5 943,-754.5 943,-677.5 477,-677.5"/>
<text text-anchor="middle" x="710" y="-739.3" font-family="Times,serif" font-size="14.00">产品应用层 (Products)</text>
</g>
<g id="clust3" class="cluster">
<title>cluster_aconfig</title>
<polygon fill="#fff3e0" stroke="black" points="625,-515 625,-637 787,-637 787,-515 625,-515"/>
<text text-anchor="middle" x="706" y="-621.8" font-family="Times,serif" font-size="14.00">应用配置层 (AConfig)</text>
</g>
<g id="clust4" class="cluster">
<title>cluster_pdl</title>
<polygon fill="#e3f2fd" stroke="black" points="396,-405 396,-482 896,-482 896,-405 396,-405"/>
<text text-anchor="middle" x="646" y="-466.8" font-family="Times,serif" font-size="14.00">外设驱动层 (PDL)</text>
</g>
<g id="clust5" class="cluster">
<title>cluster_pconfig</title>
<polygon fill="#fff3e0" stroke="black" points="369,-242.5 369,-364.5 527,-364.5 527,-242.5 369,-242.5"/>
<text text-anchor="middle" x="448" y="-349.3" font-family="Times,serif" font-size="14.00">平台配置层 (PConfig)</text>
</g>
<g id="clust6" class="cluster">
<title>cluster_prl</title>
<polygon fill="#f3e5f5" stroke="black" points="535,-235 535,-372 667,-372 667,-235 535,-235"/>
<text text-anchor="middle" x="601" y="-356.8" font-family="Times,serif" font-size="14.00">协议层 (PRL)</text>
</g>
<g id="clust7" class="cluster">
<title>cluster_hal</title>
<polygon fill="#ffebee" stroke="black" points="675,-265 675,-342 1288,-342 1288,-265 675,-265"/>
<text text-anchor="middle" x="981.5" y="-326.8" font-family="Times,serif" font-size="14.00">硬件抽象层 (HAL)</text>
</g>
<g id="clust8" class="cluster">
<title>cluster_osal</title>
<polygon fill="#eceff1" stroke="black" points="706,-65 706,-202 1230,-202 1230,-65 706,-65"/>
<text text-anchor="middle" x="968" y="-186.8" font-family="Times,serif" font-size="14.00">操作系统抽象层 (OSAL)</text>
</g>
<!-- leg1 -->
<g id="node1" class="node">
<title>leg1</title>
<polygon fill="#e8f5e9" stroke="black" points="454.5,-722.5 401.5,-722.5 401.5,-686.5 460.5,-686.5 460.5,-716.5 454.5,-722.5"/>
<polyline fill="none" stroke="black" points="454.5,-722.5 454.5,-716.5 "/>
<polyline fill="none" stroke="black" points="460.5,-716.5 454.5,-716.5 "/>
<text text-anchor="middle" x="431" y="-700.8" font-family="Arial" font-size="14.00">应用层</text>
</g>
<!-- leg2 -->
<g id="node2" class="node">
<title>leg2</title>
<polygon fill="#fff3e0" stroke="black" points="377.5,-722.5 324.5,-722.5 324.5,-686.5 383.5,-686.5 383.5,-716.5 377.5,-722.5"/>
<polyline fill="none" stroke="black" points="377.5,-722.5 377.5,-716.5 "/>
<polyline fill="none" stroke="black" points="383.5,-716.5 377.5,-716.5 "/>
<text text-anchor="middle" x="354" y="-700.8" font-family="Arial" font-size="14.00">配置层</text>
</g>
<!-- leg3 -->
<g id="node3" class="node">
<title>leg3</title>
<polygon fill="#e3f2fd" stroke="black" points="300.5,-722.5 247.5,-722.5 247.5,-686.5 306.5,-686.5 306.5,-716.5 300.5,-722.5"/>
<polyline fill="none" stroke="black" points="300.5,-722.5 300.5,-716.5 "/>
<polyline fill="none" stroke="black" points="306.5,-716.5 300.5,-716.5 "/>
<text text-anchor="middle" x="277" y="-700.8" font-family="Arial" font-size="14.00">驱动层</text>
</g>
<!-- leg4 -->
<g id="node4" class="node">
<title>leg4</title>
<polygon fill="#f3e5f5" stroke="black" points="223.5,-722.5 170.5,-722.5 170.5,-686.5 229.5,-686.5 229.5,-716.5 223.5,-722.5"/>
<polyline fill="none" stroke="black" points="223.5,-722.5 223.5,-716.5 "/>
<polyline fill="none" stroke="black" points="229.5,-716.5 223.5,-716.5 "/>
<text text-anchor="middle" x="200" y="-700.8" font-family="Arial" font-size="14.00">协议层</text>
</g>
<!-- leg5 -->
<g id="node5" class="node">
<title>leg5</title>
<polygon fill="#ffebee" stroke="black" points="146.5,-722.5 93.5,-722.5 93.5,-686.5 152.5,-686.5 152.5,-716.5 146.5,-722.5"/>
<polyline fill="none" stroke="black" points="146.5,-722.5 146.5,-716.5 "/>
<polyline fill="none" stroke="black" points="152.5,-716.5 146.5,-716.5 "/>
<text text-anchor="middle" x="123" y="-700.8" font-family="Arial" font-size="14.00">硬件层</text>
</g>
<!-- leg6 -->
<g id="node6" class="node">
<title>leg6</title>
<polygon fill="#eceff1" stroke="black" points="69.5,-722.5 16.5,-722.5 16.5,-686.5 75.5,-686.5 75.5,-716.5 69.5,-722.5"/>
<polyline fill="none" stroke="black" points="69.5,-722.5 69.5,-716.5 "/>
<polyline fill="none" stroke="black" points="75.5,-716.5 69.5,-716.5 "/>
<text text-anchor="middle" x="46" y="-700.8" font-family="Arial" font-size="14.00">系统层</text>
</g>
<!-- collector -->
<g id="node7" class="node">
<title>collector</title>
<polygon fill="lightgrey" stroke="black" points="559,-723.5 485,-723.5 485,-685.5 559,-685.5 559,-723.5"/>
<text text-anchor="middle" x="522" y="-708.3" font-family="Arial" font-size="14.00">Collector</text>
<text text-anchor="middle" x="522" y="-693.3" font-family="Arial" font-size="14.00">数据采集</text>
</g>
<!-- aconfig -->
<g id="node12" class="node">
<title>aconfig</title>
<polygon fill="#ffe082" stroke="black" points="778.5,-606 633.5,-606 633.5,-523 778.5,-523 778.5,-606"/>
<text text-anchor="middle" x="706" y="-590.8" font-family="Arial" font-size="14.00">AConfig</text>
<text text-anchor="middle" x="706" y="-575.8" font-family="Arial" font-size="14.00">业务功能→硬件映射</text>
<text text-anchor="middle" x="706" y="-560.8" font-family="Arial" font-size="14.00">• TC/TM 配置</text>
<text text-anchor="middle" x="706" y="-545.8" font-family="Arial" font-size="14.00">• O(1) 查找表</text>
<text text-anchor="middle" x="706" y="-530.8" font-family="Arial" font-size="14.00">• 缓存失效管理</text>
</g>
<!-- collector&#45;&gt;aconfig -->
<g id="edge1" class="edge">
<title>collector&#45;&gt;aconfig</title>
<path fill="none" stroke="black" stroke-dasharray="5,2" d="M538.38,-685.32C549.75,-673.22 565.56,-657.33 581,-645 595.5,-633.42 611.75,-622.06 627.62,-611.7"/>
<polygon fill="black" stroke="black" points="629.87,-614.42 636.38,-606.06 626.08,-608.53 629.87,-614.42"/>
<text text-anchor="middle" x="610" y="-648.8" font-family="Times,serif" font-size="14.00">查询配置</text>
</g>
<!-- logger -->
<g id="node8" class="node">
<title>logger</title>
<polygon fill="lightgrey" stroke="black" points="651,-723.5 577,-723.5 577,-685.5 651,-685.5 651,-723.5"/>
<text text-anchor="middle" x="614" y="-708.3" font-family="Arial" font-size="14.00">Logger</text>
<text text-anchor="middle" x="614" y="-693.3" font-family="Arial" font-size="14.00">日志服务</text>
</g>
<!-- logger&#45;&gt;aconfig -->
<g id="edge2" class="edge">
<title>logger&#45;&gt;aconfig</title>
<path fill="none" stroke="black" stroke-dasharray="5,2" d="M626.03,-685.46C637.97,-667.55 656.8,-639.3 673.19,-614.71"/>
<polygon fill="black" stroke="black" points="676.24,-616.45 678.88,-606.19 670.42,-612.57 676.24,-616.45"/>
</g>
<!-- health -->
<g id="node9" class="node">
<title>health</title>
<polygon fill="lightgrey" stroke="black" points="743,-723.5 669,-723.5 669,-685.5 743,-685.5 743,-723.5"/>
<text text-anchor="middle" x="706" y="-708.3" font-family="Arial" font-size="14.00">Health</text>
<text text-anchor="middle" x="706" y="-693.3" font-family="Arial" font-size="14.00">健康监控</text>
</g>
<!-- health&#45;&gt;aconfig -->
<g id="edge3" class="edge">
<title>health&#45;&gt;aconfig</title>
<path fill="none" stroke="black" stroke-dasharray="5,2" d="M706,-685.46C706,-667.94 706,-640.53 706,-616.32"/>
<polygon fill="black" stroke="black" points="709.5,-616.19 706,-606.19 702.5,-616.19 709.5,-616.19"/>
</g>
<!-- supervisor -->
<g id="node10" class="node">
<title>supervisor</title>
<polygon fill="lightgrey" stroke="black" points="842.5,-723.5 761.5,-723.5 761.5,-685.5 842.5,-685.5 842.5,-723.5"/>
<text text-anchor="middle" x="802" y="-708.3" font-family="Arial" font-size="14.00">Supervisor</text>
<text text-anchor="middle" x="802" y="-693.3" font-family="Arial" font-size="14.00">监控管理</text>
</g>
<!-- supervisor&#45;&gt;aconfig -->
<g id="edge4" class="edge">
<title>supervisor&#45;&gt;aconfig</title>
<path fill="none" stroke="black" stroke-dasharray="5,2" d="M789.45,-685.46C776.99,-667.55 757.34,-639.3 740.23,-614.71"/>
<polygon fill="black" stroke="black" points="742.89,-612.4 734.3,-606.19 737.14,-616.4 742.89,-612.4"/>
</g>
<!-- comm -->
<g id="node11" class="node">
<title>comm</title>
<polygon fill="lightgrey" stroke="black" points="935,-723.5 861,-723.5 861,-685.5 935,-685.5 935,-723.5"/>
<text text-anchor="middle" x="898" y="-708.3" font-family="Arial" font-size="14.00">Comm</text>
<text text-anchor="middle" x="898" y="-693.3" font-family="Arial" font-size="14.00">通信服务</text>
</g>
<!-- comm&#45;&gt;aconfig -->
<g id="edge5" class="edge">
<title>comm&#45;&gt;aconfig</title>
<path fill="none" stroke="black" stroke-dasharray="5,2" d="M872.9,-685.46C847.11,-666.93 805.91,-637.31 770.9,-612.15"/>
<polygon fill="black" stroke="black" points="772.77,-609.18 762.61,-606.19 768.69,-614.87 772.77,-609.18"/>
</g>
<!-- pdl_mcu -->
<g id="node13" class="node">
<title>pdl_mcu</title>
<polygon fill="lightgrey" stroke="black" points="887.5,-451 778.5,-451 778.5,-413 887.5,-413 887.5,-451"/>
<text text-anchor="middle" x="833" y="-435.8" font-family="Arial" font-size="14.00">PDL_MCU</text>
<text text-anchor="middle" x="833" y="-420.8" font-family="Arial" font-size="14.00">MCU 外设驱动</text>
</g>
<!-- aconfig&#45;&gt;pdl_mcu -->
<g id="edge6" class="edge">
<title>aconfig&#45;&gt;pdl_mcu</title>
<path fill="none" stroke="black" d="M745.49,-522.92C766,-501.84 790.44,-476.73 808.27,-458.41"/>
<polygon fill="black" stroke="black" points="811.01,-460.61 815.48,-451.01 805.99,-455.73 811.01,-460.61"/>
<text text-anchor="middle" x="806" y="-493.8" font-family="Times,serif" font-size="14.00">设备映射</text>
</g>
<!-- pdl_bmc -->
<g id="node14" class="node">
<title>pdl_bmc</title>
<polygon fill="lightgrey" stroke="black" points="760,-451 652,-451 652,-413 760,-413 760,-451"/>
<text text-anchor="middle" x="706" y="-435.8" font-family="Arial" font-size="14.00">PDL_BMC</text>
<text text-anchor="middle" x="706" y="-420.8" font-family="Arial" font-size="14.00">BMC 设备驱动</text>
</g>
<!-- aconfig&#45;&gt;pdl_bmc -->
<g id="edge7" class="edge">
<title>aconfig&#45;&gt;pdl_bmc</title>
<path fill="none" stroke="black" d="M706,-522.92C706,-502.88 706,-479.19 706,-461.16"/>
<polygon fill="black" stroke="black" points="709.5,-461.01 706,-451.01 702.5,-461.01 709.5,-461.01"/>
</g>
<!-- pdl_sat -->
<g id="node15" class="node">
<title>pdl_sat</title>
<polygon fill="lightgrey" stroke="black" points="506,-451 404,-451 404,-413 506,-413 506,-451"/>
<text text-anchor="middle" x="455" y="-435.8" font-family="Arial" font-size="14.00">PDL_Satellite</text>
<text text-anchor="middle" x="455" y="-420.8" font-family="Arial" font-size="14.00">主机接口驱动</text>
</g>
<!-- aconfig&#45;&gt;pdl_sat -->
<g id="edge8" class="edge">
<title>aconfig&#45;&gt;pdl_sat</title>
<path fill="none" stroke="black" d="M633.36,-538.07C596.67,-523.86 552.17,-504.49 515,-482 503.47,-475.02 491.77,-466 481.8,-457.6"/>
<polygon fill="black" stroke="black" points="484.08,-454.94 474.22,-451.05 479.5,-460.24 484.08,-454.94"/>
</g>
<!-- pconfig -->
<g id="node17" class="node">
<title>pconfig</title>
<polygon fill="#ffe082" stroke="black" points="519,-333.5 417,-333.5 417,-250.5 519,-250.5 519,-333.5"/>
<text text-anchor="middle" x="468" y="-318.3" font-family="Arial" font-size="14.00">PConfig</text>
<text text-anchor="middle" x="468" y="-303.3" font-family="Arial" font-size="14.00">硬件配置管理</text>
<text text-anchor="middle" x="468" y="-288.3" font-family="Arial" font-size="14.00">• 设备树风格</text>
<text text-anchor="middle" x="468" y="-273.3" font-family="Arial" font-size="14.00">• 多平台支持</text>
<text text-anchor="middle" x="468" y="-258.3" font-family="Arial" font-size="14.00">• 运行时查询</text>
</g>
<!-- pdl_mcu&#45;&gt;pconfig -->
<g id="edge9" class="edge">
<title>pdl_mcu&#45;&gt;pconfig</title>
<path fill="none" stroke="black" stroke-dasharray="5,2" d="M792.88,-412.98C785.08,-409.97 776.87,-407.13 769,-405 694.02,-384.68 673,-390.3 596,-380 567.15,-376.14 556.4,-386.21 531,-372 517.94,-364.69 506.59,-353.48 497.25,-341.78"/>
<polygon fill="black" stroke="black" points="499.93,-339.52 491.12,-333.65 494.35,-343.74 499.93,-339.52"/>
<text text-anchor="middle" x="755" y="-383.8" font-family="Times,serif" font-size="14.00">查询配置</text>
</g>
<!-- prl -->
<g id="node18" class="node">
<title>prl</title>
<polygon fill="#e1bee7" stroke="black" points="659,-341 543,-341 543,-243 659,-243 659,-341"/>
<text text-anchor="middle" x="601" y="-325.8" font-family="Arial" font-size="14.00">PRL</text>
<text text-anchor="middle" x="601" y="-310.8" font-family="Arial" font-size="14.00">统一设备协议</text>
<text text-anchor="middle" x="601" y="-295.8" font-family="Arial" font-size="14.00">• 20 字节协议头</text>
<text text-anchor="middle" x="601" y="-280.8" font-family="Arial" font-size="14.00">• 零拷贝设计</text>
<text text-anchor="middle" x="601" y="-265.8" font-family="Arial" font-size="14.00">• CRC16 校验</text>
<text text-anchor="middle" x="601" y="-250.8" font-family="Arial" font-size="14.00">• 设备类型区分</text>
</g>
<!-- pdl_mcu&#45;&gt;prl -->
<g id="edge13" class="edge">
<title>pdl_mcu&#45;&gt;prl</title>
<path fill="none" stroke="black" stroke-dasharray="5,2" d="M824.28,-412.86C817.69,-401.31 807.46,-387.21 794,-380 769.85,-367.07 695.6,-384.05 671,-372 659.57,-366.4 649.19,-358.03 640.14,-348.8"/>
<polygon fill="black" stroke="black" points="642.52,-346.22 633.16,-341.25 637.38,-350.97 642.52,-346.22"/>
<text text-anchor="middle" x="847" y="-383.8" font-family="Times,serif" font-size="14.00">协议编解码</text>
</g>
<!-- hal_can -->
<g id="node19" class="node">
<title>hal_can</title>
<polygon fill="lightgrey" stroke="black" points="761.5,-311 682.5,-311 682.5,-273 761.5,-273 761.5,-311"/>
<text text-anchor="middle" x="722" y="-295.8" font-family="Arial" font-size="14.00">HAL_CAN</text>
<text text-anchor="middle" x="722" y="-280.8" font-family="Arial" font-size="14.00">CAN 总线</text>
</g>
<!-- pdl_mcu&#45;&gt;hal_can -->
<g id="edge16" class="edge">
<title>pdl_mcu&#45;&gt;hal_can</title>
<path fill="none" stroke="black" d="M872.74,-412.87C888.14,-403.46 899.77,-391.53 889,-380 871.06,-360.8 793.52,-385.55 771,-372 751.98,-360.56 739.25,-338.61 731.55,-320.74"/>
<polygon fill="black" stroke="black" points="734.75,-319.31 727.78,-311.33 728.25,-321.92 734.75,-319.31"/>
<text text-anchor="middle" x="922" y="-383.8" font-family="Times,serif" font-size="14.00">数据传输</text>
</g>
<!-- hal_uart -->
<g id="node20" class="node">
<title>hal_uart</title>
<polygon fill="lightgrey" stroke="black" points="1190.5,-311 1103.5,-311 1103.5,-273 1190.5,-273 1190.5,-311"/>
<text text-anchor="middle" x="1147" y="-295.8" font-family="Arial" font-size="14.00">HAL_UART</text>
<text text-anchor="middle" x="1147" y="-280.8" font-family="Arial" font-size="14.00">串口</text>
</g>
<!-- pdl_mcu&#45;&gt;hal_uart -->
<g id="edge17" class="edge">
<title>pdl_mcu&#45;&gt;hal_uart</title>
<path fill="none" stroke="black" d="M887.64,-430.37C944.19,-427.22 1032.78,-415.03 1095,-372 1113.46,-359.23 1127.03,-337.58 1135.67,-320.17"/>
<polygon fill="black" stroke="black" points="1138.89,-321.55 1139.96,-311.01 1132.55,-318.58 1138.89,-321.55"/>
</g>
<!-- pdl_bmc&#45;&gt;pconfig -->
<g id="edge10" class="edge">
<title>pdl_bmc&#45;&gt;pconfig</title>
<path fill="none" stroke="black" stroke-dasharray="5,2" d="M663.87,-412.9C656.95,-410.13 649.81,-407.4 643,-405 641.47,-404.46 532.35,-372.91 531,-372 519.05,-363.96 508.29,-352.96 499.18,-341.72"/>
<polygon fill="black" stroke="black" points="501.73,-339.3 492.85,-333.53 496.2,-343.58 501.73,-339.3"/>
</g>
<!-- pdl_bmc&#45;&gt;prl -->
<g id="edge14" class="edge">
<title>pdl_bmc&#45;&gt;prl</title>
<path fill="none" stroke="black" stroke-dasharray="5,2" d="M692.27,-412.96C679.89,-396.69 661.01,-371.87 643.62,-349.02"/>
<polygon fill="black" stroke="black" points="646.39,-346.88 637.55,-341.04 640.82,-351.12 646.39,-346.88"/>
</g>
<!-- pdl_bmc&#45;&gt;hal_uart -->
<g id="edge18" class="edge">
<title>pdl_bmc&#45;&gt;hal_uart</title>
<path fill="none" stroke="black" d="M704.34,-412.84C704.41,-401.59 706.68,-387.84 716,-380 732.12,-366.45 1076.57,-382.19 1095,-372 1114.89,-361.01 1128.47,-338.82 1136.75,-320.75"/>
<polygon fill="black" stroke="black" points="1140.11,-321.8 1140.81,-311.23 1133.67,-319.05 1140.11,-321.8"/>
</g>
<!-- pdl_sat&#45;&gt;pconfig -->
<g id="edge11" class="edge">
<title>pdl_sat&#45;&gt;pconfig</title>
<path fill="none" stroke="black" stroke-dasharray="5,2" d="M456.7,-412.96C458.35,-395.44 460.93,-368.03 463.21,-343.82"/>
<polygon fill="black" stroke="black" points="466.71,-343.97 464.17,-333.69 459.74,-343.31 466.71,-343.97"/>
</g>
<!-- pdl_sat&#45;&gt;prl -->
<g id="edge15" class="edge">
<title>pdl_sat&#45;&gt;prl</title>
<path fill="none" stroke="black" stroke-dasharray="5,2" d="M473.34,-412.83C484.49,-402.39 499.36,-389.52 514,-380 521,-375.45 524.32,-377.01 531,-372 540.08,-365.2 548.85,-357.08 556.95,-348.66"/>
<polygon fill="black" stroke="black" points="559.62,-350.92 563.87,-341.22 554.5,-346.15 559.62,-350.92"/>
</g>
<!-- pdl_sat&#45;&gt;hal_can -->
<g id="edge19" class="edge">
<title>pdl_sat&#45;&gt;hal_can</title>
<path fill="none" stroke="black" d="M487.03,-412.93C509.08,-401.41 539.43,-387.32 568,-380 590.24,-374.3 651.28,-383.75 671,-372 690.29,-360.5 703.57,-338.56 711.73,-320.71"/>
<polygon fill="black" stroke="black" points="715.04,-321.88 715.75,-311.31 708.6,-319.13 715.04,-321.88"/>
</g>
<!-- pdl_linux -->
<g id="node16" class="node">
<title>pdl_linux</title>
<polygon fill="lightgrey" stroke="black" points="634,-451 524,-451 524,-413 634,-413 634,-451"/>
<text text-anchor="middle" x="579" y="-435.8" font-family="Arial" font-size="14.00">PDL_Linux</text>
<text text-anchor="middle" x="579" y="-420.8" font-family="Arial" font-size="14.00">Linux 设备驱动</text>
</g>
<!-- pdl_linux&#45;&gt;pconfig -->
<g id="edge12" class="edge">
<title>pdl_linux&#45;&gt;pconfig</title>
<path fill="none" stroke="black" stroke-dasharray="5,2" d="M564.25,-412.96C554.73,-401.3 542.1,-385.78 531,-372 523.1,-362.19 514.67,-351.67 506.64,-341.61"/>
<polygon fill="black" stroke="black" points="509.27,-339.29 500.3,-333.66 503.8,-343.66 509.27,-339.29"/>
</g>
<!-- hal_gpio -->
<g id="node23" class="node">
<title>hal_gpio</title>
<polygon fill="lightgrey" stroke="black" points="956,-311 870,-311 870,-273 956,-273 956,-311"/>
<text text-anchor="middle" x="913" y="-295.8" font-family="Arial" font-size="14.00">HAL_GPIO</text>
<text text-anchor="middle" x="913" y="-280.8" font-family="Arial" font-size="14.00">GPIO</text>
</g>
<!-- pdl_linux&#45;&gt;hal_gpio -->
<g id="edge20" class="edge">
<title>pdl_linux&#45;&gt;hal_gpio</title>
<path fill="none" stroke="black" d="M609.28,-412.88C630.52,-401.19 660.01,-386.91 688,-380 706.68,-375.39 844.28,-381.52 861,-372 880.75,-360.76 894.34,-338.59 902.66,-320.59"/>
<polygon fill="black" stroke="black" points="906,-321.68 906.75,-311.11 899.57,-318.91 906,-321.68"/>
</g>
<!-- osal_net -->
<g id="node27" class="node">
<title>osal_net</title>
<polygon fill="lightgrey" stroke="black" points="908,-156 820,-156 820,-88 908,-88 908,-156"/>
<text text-anchor="middle" x="864" y="-140.8" font-family="Arial" font-size="14.00">OSAL_NET</text>
<text text-anchor="middle" x="864" y="-125.8" font-family="Arial" font-size="14.00">网络</text>
<text text-anchor="middle" x="864" y="-110.8" font-family="Arial" font-size="14.00">• Socket</text>
<text text-anchor="middle" x="864" y="-95.8" font-family="Arial" font-size="14.00">• Termios</text>
</g>
<!-- hal_can&#45;&gt;osal_net -->
<g id="edge21" class="edge">
<title>hal_can&#45;&gt;osal_net</title>
<path fill="none" stroke="black" d="M730.37,-272.67C739.8,-254.07 756.89,-225.84 780,-210 791.74,-201.95 799.39,-210.22 811,-202 824.38,-192.53 835.35,-178.52 843.77,-164.93"/>
<polygon fill="black" stroke="black" points="846.9,-166.5 848.93,-156.1 840.86,-162.96 846.9,-166.5"/>
<text text-anchor="middle" x="809" y="-213.8" font-family="Times,serif" font-size="14.00">系统调用</text>
</g>
<!-- osal_sys -->
<g id="node26" class="node">
<title>osal_sys</title>
<polygon fill="lightgrey" stroke="black" points="1014,-163.5 926,-163.5 926,-80.5 1014,-80.5 1014,-163.5"/>
<text text-anchor="middle" x="970" y="-148.3" font-family="Arial" font-size="14.00">OSAL_SYS</text>
<text text-anchor="middle" x="970" y="-133.3" font-family="Arial" font-size="14.00">系统调用</text>
<text text-anchor="middle" x="970" y="-118.3" font-family="Arial" font-size="14.00">• 文件</text>
<text text-anchor="middle" x="970" y="-103.3" font-family="Arial" font-size="14.00">• 时钟</text>
<text text-anchor="middle" x="970" y="-88.3" font-family="Arial" font-size="14.00">• 信号</text>
</g>
<!-- hal_uart&#45;&gt;osal_sys -->
<g id="edge22" class="edge">
<title>hal_uart&#45;&gt;osal_sys</title>
<path fill="none" stroke="black" d="M1133.27,-272.88C1123.56,-260.98 1109.7,-245.69 1095,-235 1066.86,-214.53 1050.54,-224.5 1024,-202 1014.1,-193.61 1005.21,-182.98 997.64,-172.27"/>
<polygon fill="black" stroke="black" points="1000.36,-170.03 991.86,-163.69 994.55,-173.94 1000.36,-170.03"/>
</g>
<!-- hal_i2c -->
<g id="node21" class="node">
<title>hal_i2c</title>
<polygon fill="lightgrey" stroke="black" points="1279.5,-311 1208.5,-311 1208.5,-273 1279.5,-273 1279.5,-311"/>
<text text-anchor="middle" x="1244" y="-295.8" font-family="Arial" font-size="14.00">HAL_I2C</text>
<text text-anchor="middle" x="1244" y="-280.8" font-family="Arial" font-size="14.00">I2C 总线</text>
</g>
<!-- hal_i2c&#45;&gt;osal_sys -->
<g id="edge23" class="edge">
<title>hal_i2c&#45;&gt;osal_sys</title>
<path fill="none" stroke="black" d="M1234.35,-272.74C1226.72,-260.14 1214.89,-244.07 1200,-235 1149.76,-204.38 1127.87,-220.6 1070,-210 1049.59,-206.26 1041.45,-213.23 1024,-202 1012.42,-194.55 1002.68,-183.65 994.8,-172.3"/>
<polygon fill="black" stroke="black" points="997.52,-170.07 989.14,-163.59 991.65,-173.88 997.52,-170.07"/>
</g>
<!-- hal_spi -->
<g id="node22" class="node">
<title>hal_spi</title>
<polygon fill="lightgrey" stroke="black" points="852,-311 780,-311 780,-273 852,-273 852,-311"/>
<text text-anchor="middle" x="816" y="-295.8" font-family="Arial" font-size="14.00">HAL_SPI</text>
<text text-anchor="middle" x="816" y="-280.8" font-family="Arial" font-size="14.00">SPI 总线</text>
</g>
<!-- hal_spi&#45;&gt;osal_sys -->
<g id="edge24" class="edge">
<title>hal_spi&#45;&gt;osal_sys</title>
<path fill="none" stroke="black" d="M827.94,-272.94C836.27,-261.21 848.17,-246.1 861,-235 882.85,-216.1 895.98,-221.82 917,-202 926.2,-193.33 934.63,-182.78 941.94,-172.25"/>
<polygon fill="black" stroke="black" points="944.91,-174.11 947.55,-163.85 939.08,-170.22 944.91,-174.11"/>
</g>
<!-- hal_gpio&#45;&gt;osal_sys -->
<g id="edge25" class="edge">
<title>hal_gpio&#45;&gt;osal_sys</title>
<path fill="none" stroke="black" d="M919.21,-272.7C927.24,-249.02 941.57,-206.8 952.96,-173.23"/>
<polygon fill="black" stroke="black" points="956.34,-174.16 956.24,-163.56 949.71,-171.91 956.34,-174.16"/>
</g>
<!-- hal_wdt -->
<g id="node24" class="node">
<title>hal_wdt</title>
<polygon fill="lightgrey" stroke="black" points="1085.5,-311 974.5,-311 974.5,-273 1085.5,-273 1085.5,-311"/>
<text text-anchor="middle" x="1030" y="-295.8" font-family="Arial" font-size="14.00">HAL_Watchdog</text>
<text text-anchor="middle" x="1030" y="-280.8" font-family="Arial" font-size="14.00">看门狗</text>
</g>
<!-- hal_wdt&#45;&gt;osal_sys -->
<g id="edge26" class="edge">
<title>hal_wdt&#45;&gt;osal_sys</title>
<path fill="none" stroke="black" d="M1023.46,-272.7C1015.01,-249.02 999.93,-206.8 987.94,-173.23"/>
<polygon fill="black" stroke="black" points="991.15,-171.8 984.49,-163.56 984.55,-174.16 991.15,-171.8"/>
</g>
<!-- osal_ipc -->
<g id="node25" class="node">
<title>osal_ipc</title>
<polygon fill="lightgrey" stroke="black" points="802,-171 714,-171 714,-73 802,-73 802,-171"/>
<text text-anchor="middle" x="758" y="-155.8" font-family="Arial" font-size="14.00">OSAL_IPC</text>
<text text-anchor="middle" x="758" y="-140.8" font-family="Arial" font-size="14.00">进程间通信</text>
<text text-anchor="middle" x="758" y="-125.8" font-family="Arial" font-size="14.00">• 线程</text>
<text text-anchor="middle" x="758" y="-110.8" font-family="Arial" font-size="14.00">• 队列</text>
<text text-anchor="middle" x="758" y="-95.8" font-family="Arial" font-size="14.00">• 互斥锁</text>
<text text-anchor="middle" x="758" y="-80.8" font-family="Arial" font-size="14.00">• 信号量</text>
</g>
<!-- os -->
<g id="node30" class="node">
<title>os</title>
<path fill="#cfd8dc" stroke="black" d="M1054.5,-32.73C1054.5,-34.53 1016.63,-36 970,-36 923.37,-36 885.5,-34.53 885.5,-32.73 885.5,-32.73 885.5,-3.27 885.5,-3.27 885.5,-1.47 923.37,0 970,0 1016.63,0 1054.5,-1.47 1054.5,-3.27 1054.5,-3.27 1054.5,-32.73 1054.5,-32.73"/>
<path fill="none" stroke="black" d="M1054.5,-32.73C1054.5,-30.92 1016.63,-29.45 970,-29.45 923.37,-29.45 885.5,-30.92 885.5,-32.73"/>
<text text-anchor="middle" x="970" y="-14.3" font-family="Arial" font-size="14.00">Linux Kernel / POSIX OS</text>
</g>
<!-- osal_ipc&#45;&gt;os -->
<g id="edge27" class="edge">
<title>osal_ipc&#45;&gt;os</title>
<path fill="none" stroke="black" d="M800,-72.78C803.55,-69.94 807.23,-67.3 811,-65 830.56,-53.08 853.35,-44.13 875.47,-37.44"/>
<polygon fill="black" stroke="black" points="876.59,-40.76 885.23,-34.62 874.65,-34.04 876.59,-40.76"/>
</g>
<!-- osal_sys&#45;&gt;os -->
<g id="edge28" class="edge">
<title>osal_sys&#45;&gt;os</title>
<path fill="none" stroke="black" d="M970,-80.39C970,-68.93 970,-56.74 970,-46.26"/>
<polygon fill="black" stroke="black" points="973.5,-46.07 970,-36.07 966.5,-46.07 973.5,-46.07"/>
</g>
<!-- osal_net&#45;&gt;os -->
<g id="edge29" class="edge">
<title>osal_net&#45;&gt;os</title>
<path fill="none" stroke="black" d="M894.3,-87.9C901.59,-80.24 909.46,-72.22 917,-65 924.79,-57.54 933.52,-49.74 941.62,-42.73"/>
<polygon fill="black" stroke="black" points="944.14,-45.19 949.45,-36.02 939.58,-39.87 944.14,-45.19"/>
</g>
<!-- osal_lib -->
<g id="node28" class="node">
<title>osal_lib</title>
<polygon fill="lightgrey" stroke="black" points="1113.5,-156 1032.5,-156 1032.5,-88 1113.5,-88 1113.5,-156"/>
<text text-anchor="middle" x="1073" y="-140.8" font-family="Arial" font-size="14.00">OSAL_LIB</text>
<text text-anchor="middle" x="1073" y="-125.8" font-family="Arial" font-size="14.00">标准库</text>
<text text-anchor="middle" x="1073" y="-110.8" font-family="Arial" font-size="14.00">• 字符串</text>
<text text-anchor="middle" x="1073" y="-95.8" font-family="Arial" font-size="14.00">• 内存</text>
</g>
<!-- osal_lib&#45;&gt;os -->
<g id="edge30" class="edge">
<title>osal_lib&#45;&gt;os</title>
<path fill="none" stroke="black" d="M1044.6,-87.78C1037.71,-80.12 1030.24,-72.14 1023,-65 1015.39,-57.49 1006.77,-49.73 998.72,-42.76"/>
<polygon fill="black" stroke="black" points="1000.81,-39.94 990.93,-36.11 996.26,-45.26 1000.81,-39.94"/>
</g>
<!-- osal_util -->
<g id="node29" class="node">
<title>osal_util</title>
<polygon fill="lightgrey" stroke="black" points="1222,-156 1132,-156 1132,-88 1222,-88 1222,-156"/>
<text text-anchor="middle" x="1177" y="-140.8" font-family="Arial" font-size="14.00">OSAL_UTIL</text>
<text text-anchor="middle" x="1177" y="-125.8" font-family="Arial" font-size="14.00">工具类</text>
<text text-anchor="middle" x="1177" y="-110.8" font-family="Arial" font-size="14.00">• 日志</text>
<text text-anchor="middle" x="1177" y="-95.8" font-family="Arial" font-size="14.00">• 版本</text>
</g>
<!-- osal_util&#45;&gt;os -->
<g id="edge31" class="edge">
<title>osal_util&#45;&gt;os</title>
<path fill="none" stroke="black" d="M1150.31,-87.72C1142.26,-79.35 1132.92,-71.05 1123,-65 1103.8,-53.29 1081.42,-44.38 1059.79,-37.67"/>
<polygon fill="black" stroke="black" points="1060.5,-34.23 1049.92,-34.75 1058.51,-40.95 1060.5,-34.23"/>
</g>
<!-- note1 -->
<g id="node31" class="node">
<title>note1</title>
<polygon fill="#fffde7" stroke="black" points="1264.5,-723.5 953.5,-723.5 953.5,-685.5 1270.5,-685.5 1270.5,-717.5 1264.5,-723.5"/>
<polyline fill="none" stroke="black" points="1264.5,-723.5 1264.5,-717.5 "/>
<polyline fill="none" stroke="black" points="1270.5,-717.5 1264.5,-717.5 "/>
<text text-anchor="middle" x="1112" y="-708.3" font-family="Arial" font-size="14.00">数据流向：</text>
<text text-anchor="middle" x="1112" y="-693.3" font-family="Arial" font-size="14.00">应用层 → 配置层 → 驱动层 → 硬件层 → 系统层</text>
</g>
<!-- note2 -->
<g id="node32" class="node">
<title>note2</title>
<polygon fill="#fffde7" stroke="black" points="1469,-731 1289,-731 1289,-678 1475,-678 1475,-725 1469,-731"/>
<polyline fill="none" stroke="black" points="1469,-731 1469,-725 "/>
<polyline fill="none" stroke="black" points="1475,-725 1469,-725 "/>
<text text-anchor="middle" x="1382" y="-715.8" font-family="Arial" font-size="14.00">配置查询：</text>
<text text-anchor="middle" x="1382" y="-700.8" font-family="Arial" font-size="14.00">PConfig → PDL (硬件配置)</text>
<text text-anchor="middle" x="1382" y="-685.8" font-family="Arial" font-size="14.00">AConfig → Apps (业务配置)</text>
</g>
<!-- note3 -->
<g id="node33" class="node">
<title>note3</title>
<polygon fill="#fffde7" stroke="black" points="1689,-731 1493,-731 1493,-678 1695,-678 1695,-725 1689,-731"/>
<polyline fill="none" stroke="black" points="1689,-731 1689,-725 "/>
<polyline fill="none" stroke="black" points="1695,-725 1689,-725 "/>
<text text-anchor="middle" x="1594" y="-715.8" font-family="Arial" font-size="14.00">协议处理：</text>
<text text-anchor="middle" x="1594" y="-700.8" font-family="Arial" font-size="14.00">PRL 仅被 PDL 调用</text>
<text text-anchor="middle" x="1594" y="-685.8" font-family="Arial" font-size="14.00">用于协议编解码，不参与传输</text>
</g>
</g>
</svg>
