<?xml version="1.0" encoding="UTF-8" standalone="no"?>
<!DOCTYPE svg PUBLIC "-//W3C//DTD SVG 1.1//EN"
 "http://www.w3.org/Graphics/SVG/1.1/DTD/svg11.dtd">
<!-- Generated by graphviz version 2.43.0 (0)
 -->
<!-- Title: Module_Dependencies Pages: 1 -->
<svg width="781pt" height="589pt"
 viewBox="0.00 0.00 780.50 589.00" xmlns="http://www.w3.org/2000/svg" xmlns:xlink="http://www.w3.org/1999/xlink">
<g id="graph0" class="graph" transform="scale(1 1) rotate(0) translate(4 585)">
<title>Module_Dependencies</title>
<polygon fill="white" stroke="transparent" points="-4,4 -4,-585 776.5,-585 776.5,4 -4,4"/>
<!-- OSAL -->
<g id="node1" class="node">
<title>OSAL</title>
<polygon fill="#eceff1" stroke="black" points="339,-75.5 223,-75.5 223,-37.5 339,-37.5 339,-75.5"/>
<text text-anchor="middle" x="281" y="-60.3" font-family="Arial" font-size="14.00">OSAL</text>
<text text-anchor="middle" x="281" y="-45.3" font-family="Arial" font-size="14.00">操作系统抽象层</text>
</g>
<!-- HAL -->
<g id="node2" class="node">
<title>HAL</title>
<polygon fill="#ffebee" stroke="black" points="88,-202 0,-202 0,-164 88,-164 88,-202"/>
<text text-anchor="middle" x="44" y="-186.8" font-family="Arial" font-size="14.00">HAL</text>
<text text-anchor="middle" x="44" y="-171.8" font-family="Arial" font-size="14.00">硬件抽象层</text>
</g>
<!-- OSAL&#45;&gt;HAL -->
<g id="edge1" class="edge">
<title>OSAL&#45;&gt;HAL</title>
<path fill="none" stroke="black" d="M222.94,-57.65C167.35,-61.26 86.04,-76.36 45,-131 40.19,-137.4 38.66,-145.64 38.68,-153.62"/>
<polygon fill="black" stroke="black" points="35.2,-154.09 39.46,-163.79 42.18,-153.55 35.2,-154.09"/>
<text text-anchor="middle" x="88" y="-134.8" font-family="Times,serif" font-size="14.00">系统调用封装</text>
</g>
<!-- PRL -->
<g id="node4" class="node">
<title>PRL</title>
<polygon fill="#f3e5f5" stroke="black" points="174.5,-314 115.5,-314 115.5,-276 174.5,-276 174.5,-314"/>
<text text-anchor="middle" x="145" y="-298.8" font-family="Arial" font-size="14.00">PRL</text>
<text text-anchor="middle" x="145" y="-283.8" font-family="Arial" font-size="14.00">协议层</text>
</g>
<!-- OSAL&#45;&gt;PRL -->
<g id="edge2" class="edge">
<title>OSAL&#45;&gt;PRL</title>
<path fill="none" stroke="black" d="M250.17,-75.59C221.86,-94 181.34,-125.28 161,-164 144.29,-195.81 142.11,-237.88 142.89,-265.43"/>
<polygon fill="black" stroke="black" points="139.4,-265.73 143.33,-275.57 146.4,-265.43 139.4,-265.73"/>
<text text-anchor="middle" x="197" y="-179.3" font-family="Times,serif" font-size="14.00">时间、内存</text>
</g>
<!-- PConfig -->
<g id="node5" class="node">
<title>PConfig</title>
<polygon fill="#fff3e0" stroke="black" points="283,-258 195,-258 195,-220 283,-220 283,-258"/>
<text text-anchor="middle" x="239" y="-242.8" font-family="Arial" font-size="14.00">PConfig</text>
<text text-anchor="middle" x="239" y="-227.8" font-family="Arial" font-size="14.00">平台配置层</text>
</g>
<!-- OSAL&#45;&gt;PConfig -->
<g id="edge3" class="edge">
<title>OSAL&#45;&gt;PConfig</title>
<path fill="none" stroke="black" d="M269.88,-75.79C261.71,-90.22 251.17,-111.17 246,-131 239.21,-157.04 237.86,-187.8 237.97,-209.64"/>
<polygon fill="black" stroke="black" points="234.47,-209.93 238.13,-219.87 241.47,-209.82 234.47,-209.93"/>
<text text-anchor="middle" x="275" y="-134.8" font-family="Times,serif" font-size="14.00">基础类型</text>
</g>
<!-- PDL -->
<g id="node6" class="node">
<title>PDL</title>
<polygon fill="#e3f2fd" stroke="black" points="276,-403 188,-403 188,-365 276,-365 276,-403"/>
<text text-anchor="middle" x="232" y="-387.8" font-family="Arial" font-size="14.00">PDL</text>
<text text-anchor="middle" x="232" y="-372.8" font-family="Arial" font-size="14.00">外设驱动层</text>
</g>
<!-- OSAL&#45;&gt;PDL -->
<g id="edge4" class="edge">
<title>OSAL&#45;&gt;PDL</title>
<path fill="none" stroke="black" d="M288.34,-75.56C293.89,-90.22 301.03,-111.57 304,-131 306.12,-144.88 321.05,-261.89 299,-314 291.71,-331.23 277.97,-346.59 264.83,-358.42"/>
<polygon fill="black" stroke="black" points="262.51,-355.79 257.21,-364.96 267.07,-361.1 262.51,-355.79"/>
<text text-anchor="middle" x="346" y="-235.3" font-family="Times,serif" font-size="14.00">日志、内存</text>
</g>
<!-- AConfig -->
<g id="node7" class="node">
<title>AConfig</title>
<polygon fill="#fff3e0" stroke="black" points="449,-492 361,-492 361,-454 449,-454 449,-492"/>
<text text-anchor="middle" x="405" y="-476.8" font-family="Arial" font-size="14.00">AConfig</text>
<text text-anchor="middle" x="405" y="-461.8" font-family="Arial" font-size="14.00">应用配置层</text>
</g>
<!-- OSAL&#45;&gt;AConfig -->
<g id="edge5" class="edge">
<title>OSAL&#45;&gt;AConfig</title>
<path fill="none" stroke="black" d="M302.03,-75.66C337.41,-106.6 405,-167.59 405,-182 405,-182 405,-182 405,-385 405,-404.45 405,-426.35 405,-443.31"/>
<polygon fill="black" stroke="black" points="401.5,-443.67 405,-453.67 408.5,-443.67 401.5,-443.67"/>
<text text-anchor="middle" x="441" y="-291.3" font-family="Times,serif" font-size="14.00">日志、内存</text>
</g>
<!-- Apps -->
<g id="node8" class="node">
<title>Apps</title>
<polygon fill="#e8f5e9" stroke="black" points="540,-581 470,-581 470,-543 540,-543 540,-581"/>
<text text-anchor="middle" x="505" y="-565.8" font-family="Arial" font-size="14.00">Products</text>
<text text-anchor="middle" x="505" y="-550.8" font-family="Arial" font-size="14.00">应用层</text>
</g>
<!-- OSAL&#45;&gt;Apps -->
<g id="edge6" class="edge">
<title>OSAL&#45;&gt;Apps</title>
<path fill="none" stroke="black" d="M299.84,-75.54C312.7,-87.22 330.52,-102.21 348,-113 412.86,-153.03 505,-105.78 505,-182 505,-182 505,-182 505,-474 505,-493.45 505,-515.35 505,-532.31"/>
<polygon fill="black" stroke="black" points="501.5,-532.67 505,-542.67 508.5,-532.67 501.5,-532.67"/>
<text text-anchor="middle" x="534" y="-335.8" font-family="Times,serif" font-size="14.00">系统接口</text>
</g>
<!-- HAL&#45;&gt;PRL -->
<g id="edge8" class="edge">
<title>HAL&#45;&gt;PRL</title>
<path fill="none" stroke="black" stroke-dasharray="5,2" d="M40.11,-202.31C37.76,-218.54 37.16,-242.09 49,-258 56.16,-267.62 82.38,-277.09 105.61,-283.9"/>
<polygon fill="black" stroke="black" points="104.75,-287.29 115.32,-286.65 106.65,-280.55 104.75,-287.29"/>
<text text-anchor="middle" x="90" y="-235.3" font-family="Times,serif" font-size="14.00">传输层(可选)</text>
</g>
<!-- HAL&#45;&gt;PDL -->
<g id="edge7" class="edge">
<title>HAL&#45;&gt;PDL</title>
<path fill="none" stroke="black" d="M38.14,-202.11C30.42,-229.85 20.75,-282.94 48,-314 80.94,-351.56 136.4,-368.72 177.83,-376.54"/>
<polygon fill="black" stroke="black" points="177.32,-380 187.78,-378.29 178.54,-373.11 177.32,-380"/>
<text text-anchor="middle" x="77" y="-291.3" font-family="Times,serif" font-size="14.00">硬件操作</text>
</g>
<!-- LIB -->
<g id="node3" class="node">
<title>LIB</title>
<polygon fill="none" stroke="black" stroke-dasharray="5,2" points="615,-202 541,-202 541,-164 615,-164 615,-202"/>
<text text-anchor="middle" x="578" y="-186.8" font-family="Arial" font-size="14.00">第三方库</text>
<text text-anchor="middle" x="578" y="-171.8" font-family="Arial" font-size="14.00">(可选)</text>
</g>
<!-- LIB&#45;&gt;Apps -->
<g id="edge13" class="edge">
<title>LIB&#45;&gt;Apps</title>
<path fill="none" stroke="black" stroke-dasharray="5,2" d="M578,-202.3C578,-224.12 578,-261.73 578,-294 578,-294 578,-294 578,-474 578,-499.13 559.9,-520.81 541.72,-536.24"/>
<polygon fill="black" stroke="black" points="539.05,-533.9 533.43,-542.88 543.43,-539.36 539.05,-533.9"/>
<text text-anchor="middle" x="614" y="-380.3" font-family="Times,serif" font-size="14.00">第三方功能</text>
</g>
<!-- PRL&#45;&gt;PDL -->
<g id="edge9" class="edge">
<title>PRL&#45;&gt;PDL</title>
<path fill="none" stroke="black" d="M140.72,-314.47C139.38,-324.88 139.63,-337.63 146,-347 153.69,-358.31 165.66,-366.07 178.26,-371.4"/>
<polygon fill="black" stroke="black" points="177.36,-374.8 187.96,-375.02 179.81,-368.24 177.36,-374.8"/>
<text text-anchor="middle" x="182" y="-335.8" font-family="Times,serif" font-size="14.00">协议编解码</text>
</g>
<!-- PConfig&#45;&gt;PDL -->
<g id="edge10" class="edge">
<title>PConfig&#45;&gt;PDL</title>
<path fill="none" stroke="black" d="M238.11,-258.11C236.93,-282.37 234.81,-325.67 233.4,-354.37"/>
<polygon fill="black" stroke="black" points="229.89,-354.43 232.9,-364.58 236.89,-354.77 229.89,-354.43"/>
<text text-anchor="middle" x="266" y="-291.3" font-family="Times,serif" font-size="14.00">硬件配置</text>
</g>
<!-- PDL&#45;&gt;AConfig -->
<g id="edge11" class="edge">
<title>PDL&#45;&gt;AConfig</title>
<path fill="none" stroke="black" d="M267.98,-403.21C287.25,-412.95 311.41,-425.15 333,-436 341.62,-440.33 350.82,-444.94 359.67,-449.37"/>
<polygon fill="black" stroke="black" points="358.22,-452.56 368.73,-453.9 361.35,-446.3 358.22,-452.56"/>
<text text-anchor="middle" x="362" y="-424.8" font-family="Times,serif" font-size="14.00">设备驱动</text>
</g>
<!-- AConfig&#45;&gt;Apps -->
<g id="edge12" class="edge">
<title>AConfig&#45;&gt;Apps</title>
<path fill="none" stroke="black" d="M411.8,-492.29C416.47,-502.89 423.54,-515.9 433,-525 440.94,-532.64 450.82,-538.99 460.69,-544.12"/>
<polygon fill="black" stroke="black" points="459.18,-547.27 469.7,-548.49 462.23,-540.98 459.18,-547.27"/>
<text text-anchor="middle" x="462" y="-513.8" font-family="Times,serif" font-size="14.00">业务配置</text>
</g>
<!-- note1 -->
<g id="node9" class="node">
<title>note1</title>
<polygon fill="#fffde7" stroke="black" points="575,-98 357,-98 357,-15 581,-15 581,-92 575,-98"/>
<polyline fill="none" stroke="black" points="575,-98 575,-92 "/>
<polyline fill="none" stroke="black" points="581,-92 575,-92 "/>
<text text-anchor="middle" x="469" y="-82.8" font-family="Arial" font-size="14.00">依赖规则：</text>
<text text-anchor="middle" x="469" y="-67.8" font-family="Arial" font-size="14.00">1. Core 不能依赖 Products</text>
<text text-anchor="middle" x="469" y="-52.8" font-family="Arial" font-size="14.00">2. 上层可以依赖下层</text>
<text text-anchor="middle" x="469" y="-37.8" font-family="Arial" font-size="14.00">3. 同层之间尽量避免依赖</text>
<text text-anchor="middle" x="469" y="-22.8" font-family="Arial" font-size="14.00">4. PDL 可以同时使用 PRL 和 HAL</text>
</g>
<!-- note2 -->
<g id="node10" class="node">
<title>note2</title>
<polygon fill="#e1f5fe" stroke="black" points="766.5,-113 599.5,-113 599.5,0 772.5,0 772.5,-107 766.5,-113"/>
<polyline fill="none" stroke="black" points="766.5,-113 766.5,-107 "/>
<polyline fill="none" stroke="black" points="772.5,-107 766.5,-107 "/>
<text text-anchor="middle" x="686" y="-97.8" font-family="Arial" font-size="14.00">构建顺序（从下到上）：</text>
<text text-anchor="middle" x="686" y="-82.8" font-family="Arial" font-size="14.00">1. OSAL</text>
<text text-anchor="middle" x="686" y="-67.8" font-family="Arial" font-size="14.00">2. HAL, PConfig</text>
<text text-anchor="middle" x="686" y="-52.8" font-family="Arial" font-size="14.00">3. PRL</text>
<text text-anchor="middle" x="686" y="-37.8" font-family="Arial" font-size="14.00">4. PDL</text>
<text text-anchor="middle" x="686" y="-22.8" font-family="Arial" font-size="14.00">5. AConfig</text>
<text text-anchor="middle" x="686" y="-7.8" font-family="Arial" font-size="14.00">6. Products</text>
</g>
</g>
</svg>
