<?xml version="1.0" encoding="UTF-8" standalone="no"?>
<!DOCTYPE svg PUBLIC "-//W3C//DTD SVG 1.1//EN"
 "http://www.w3.org/Graphics/SVG/1.1/DTD/svg11.dtd">
<!-- Generated by graphviz version 2.43.0 (0)
 -->
<!-- Title: Data_Flow Pages: 1 -->
<svg width="1387pt" height="388pt"
 viewBox="0.00 0.00 1387.00 388.00" xmlns="http://www.w3.org/2000/svg" xmlns:xlink="http://www.w3.org/1999/xlink">
<g id="graph0" class="graph" transform="scale(1 1) rotate(0) translate(4 384)">
<title>Data_Flow</title>
<polygon fill="white" stroke="transparent" points="-4,4 -4,-384 1383,-384 1383,4 -4,4"/>
<g id="clust1" class="cluster">
<title>cluster_telecommand</title>
<polygon fill="#e8f5e9" stroke="black" points="86,-8 86,-118 1371,-118 1371,-8 86,-8"/>
<text text-anchor="middle" x="728.5" y="-102.8" font-family="Times,serif" font-size="14.00">遥控命令流程 (Telecommand Flow)</text>
</g>
<g id="clust2" class="cluster">
<title>cluster_telemetry</title>
<polygon fill="#e3f2fd" stroke="black" points="91.5,-126 91.5,-304 1371,-304 1371,-126 91.5,-126"/>
<text text-anchor="middle" x="731.25" y="-288.8" font-family="Times,serif" font-size="14.00">遥测数据流程 (Telemetry Flow)</text>
</g>
<!-- tc_app -->
<g id="node1" class="node">
<title>tc_app</title>
<polygon fill="lightgrey" stroke="black" points="164,-70 94,-70 94,-32 164,-32 164,-70"/>
<text text-anchor="middle" x="129" y="-54.8" font-family="Arial" font-size="14.00">应用层</text>
<text text-anchor="middle" x="129" y="-39.8" font-family="Arial" font-size="14.00">Collector</text>
</g>
<!-- tc_aconfig -->
<g id="node2" class="node">
<title>tc_aconfig</title>
<polygon fill="#fff3e0" stroke="black" points="570,-77.5 379,-77.5 379,-24.5 570,-24.5 570,-77.5"/>
<text text-anchor="middle" x="474.5" y="-62.3" font-family="Arial" font-size="14.00">AConfig</text>
<text text-anchor="middle" x="474.5" y="-47.3" font-family="Arial" font-size="14.00">查询设备映射</text>
<text text-anchor="middle" x="474.5" y="-32.3" font-family="Arial" font-size="14.00">TC_POWER_ON → BMC[0]</text>
</g>
<!-- tc_app&#45;&gt;tc_aconfig -->
<g id="edge1" class="edge">
<title>tc_app&#45;&gt;tc_aconfig</title>
<path fill="none" stroke="black" d="M164.05,-45.66C209.12,-39.28 291.03,-30.05 361,-35 363.54,-35.18 366.11,-35.38 368.7,-35.6"/>
<polygon fill="black" stroke="black" points="368.49,-39.1 378.77,-36.55 369.14,-32.13 368.49,-39.1"/>
<text text-anchor="middle" x="318.5" y="-38.8" font-family="Times,serif" font-size="14.00">1. 查询</text>
</g>
<!-- tc_aconfig&#45;&gt;tc_app -->
<g id="edge10" class="edge">
<title>tc_aconfig&#45;&gt;tc_app</title>
<path fill="none" stroke="black" stroke-dasharray="5,2" d="M378.7,-51C311.98,-51 225.72,-51 174.3,-51"/>
<polygon fill="black" stroke="black" points="174.19,-47.5 164.19,-51 174.19,-54.5 174.19,-47.5"/>
<text text-anchor="middle" x="318.5" y="-54.8" font-family="Times,serif" font-size="14.00">10. 返回结果</text>
</g>
<!-- tc_pdl -->
<g id="node3" class="node">
<title>tc_pdl</title>
<polygon fill="lightgrey" stroke="black" points="829,-70 718,-70 718,-32 829,-32 829,-70"/>
<text text-anchor="middle" x="773.5" y="-54.8" font-family="Arial" font-size="14.00">PDL_BMC</text>
<text text-anchor="middle" x="773.5" y="-39.8" font-family="Arial" font-size="14.00">调用 BMC 驱动</text>
</g>
<!-- tc_aconfig&#45;&gt;tc_pdl -->
<g id="edge2" class="edge">
<title>tc_aconfig&#45;&gt;tc_pdl</title>
<path fill="none" stroke="black" d="M570.23,-36.55C576.23,-35.94 582.19,-35.41 588,-35 637.65,-31.49 650.52,-29.6 700,-35 702.52,-35.28 705.09,-35.6 707.67,-35.97"/>
<polygon fill="black" stroke="black" points="707.25,-39.45 717.68,-37.59 708.37,-32.54 707.25,-39.45"/>
<text text-anchor="middle" x="644" y="-38.8" font-family="Times,serif" font-size="14.00">2. 映射</text>
</g>
<!-- tc_pdl&#45;&gt;tc_aconfig -->
<g id="edge9" class="edge">
<title>tc_pdl&#45;&gt;tc_aconfig</title>
<path fill="none" stroke="black" stroke-dasharray="5,2" d="M717.9,-51C679.47,-51 626.81,-51 580.4,-51"/>
<polygon fill="black" stroke="black" points="580.29,-47.5 570.29,-51 580.29,-54.5 580.29,-47.5"/>
<text text-anchor="middle" x="644" y="-54.8" font-family="Times,serif" font-size="14.00">9. 失效缓存</text>
</g>
<!-- tc_prl -->
<g id="node4" class="node">
<title>tc_prl</title>
<polygon fill="#f3e5f5" stroke="black" points="1025,-70 923,-70 923,-32 1025,-32 1025,-70"/>
<text text-anchor="middle" x="974" y="-54.8" font-family="Arial" font-size="14.00">PRL</text>
<text text-anchor="middle" x="974" y="-39.8" font-family="Arial" font-size="14.00">编码协议报文</text>
</g>
<!-- tc_pdl&#45;&gt;tc_prl -->
<g id="edge3" class="edge">
<title>tc_pdl&#45;&gt;tc_prl</title>
<path fill="none" stroke="black" d="M829.32,-37.59C835.25,-36.53 841.23,-35.63 847,-35 872.63,-32.21 879.39,-32.03 905,-35 907.53,-35.29 910.1,-35.65 912.69,-36.05"/>
<polygon fill="black" stroke="black" points="912.27,-39.53 922.73,-37.81 913.48,-32.63 912.27,-39.53"/>
<text text-anchor="middle" x="876" y="-38.8" font-family="Times,serif" font-size="14.00">3. 编码</text>
</g>
<!-- tc_prl&#45;&gt;tc_pdl -->
<g id="edge8" class="edge">
<title>tc_prl&#45;&gt;tc_pdl</title>
<path fill="none" stroke="black" stroke-dasharray="5,2" d="M922.7,-51C897.34,-51 866.3,-51 839.18,-51"/>
<polygon fill="black" stroke="black" points="839,-47.5 829,-51 839,-54.5 839,-47.5"/>
<text text-anchor="middle" x="876" y="-54.8" font-family="Times,serif" font-size="14.00">8. 解码</text>
</g>
<!-- tc_hal -->
<g id="node5" class="node">
<title>tc_hal</title>
<polygon fill="#ffebee" stroke="black" points="1206,-70 1119,-70 1119,-32 1206,-32 1206,-70"/>
<text text-anchor="middle" x="1162.5" y="-54.8" font-family="Arial" font-size="14.00">HAL_UART</text>
<text text-anchor="middle" x="1162.5" y="-39.8" font-family="Arial" font-size="14.00">发送数据</text>
</g>
<!-- tc_prl&#45;&gt;tc_hal -->
<g id="edge4" class="edge">
<title>tc_prl&#45;&gt;tc_hal</title>
<path fill="none" stroke="black" d="M1025.27,-37.81C1031.21,-36.65 1037.22,-35.67 1043,-35 1068.61,-32.03 1075.44,-31.68 1101,-35 1103.55,-35.33 1106.14,-35.74 1108.74,-36.2"/>
<polygon fill="black" stroke="black" points="1108.31,-39.69 1118.81,-38.25 1109.71,-32.83 1108.31,-39.69"/>
<text text-anchor="middle" x="1072" y="-38.8" font-family="Times,serif" font-size="14.00">4. 传输</text>
</g>
<!-- tc_hal&#45;&gt;tc_prl -->
<g id="edge7" class="edge">
<title>tc_hal&#45;&gt;tc_prl</title>
<path fill="none" stroke="black" stroke-dasharray="5,2" d="M1118.89,-51C1094.25,-51 1062.84,-51 1035.66,-51"/>
<polygon fill="black" stroke="black" points="1035.47,-47.5 1025.47,-51 1035.47,-54.5 1035.47,-47.5"/>
<text text-anchor="middle" x="1072" y="-54.8" font-family="Times,serif" font-size="14.00">7. 接收</text>
</g>
<!-- tc_hw -->
<g id="node6" class="node">
<title>tc_hw</title>
<path fill="lightgrey" stroke="black" d="M1363,-72.48C1363,-75.11 1346.42,-77.25 1326,-77.25 1305.58,-77.25 1289,-75.11 1289,-72.48 1289,-72.48 1289,-29.52 1289,-29.52 1289,-26.89 1305.58,-24.75 1326,-24.75 1346.42,-24.75 1363,-26.89 1363,-29.52 1363,-29.52 1363,-72.48 1363,-72.48"/>
<path fill="none" stroke="black" d="M1363,-72.48C1363,-69.84 1346.42,-67.7 1326,-67.7 1305.58,-67.7 1289,-69.84 1289,-72.48"/>
<text text-anchor="middle" x="1326" y="-54.8" font-family="Arial" font-size="14.00">硬件设备</text>
<text text-anchor="middle" x="1326" y="-39.8" font-family="Arial" font-size="14.00">BMC</text>
</g>
<!-- tc_hal&#45;&gt;tc_hw -->
<g id="edge5" class="edge">
<title>tc_hal&#45;&gt;tc_hw</title>
<path fill="none" stroke="black" d="M1206.19,-38.25C1212.13,-36.91 1218.18,-35.76 1224,-35 1244.71,-32.31 1250.33,-32 1271,-35 1273.54,-35.37 1276.13,-35.83 1278.72,-36.36"/>
<polygon fill="black" stroke="black" points="1278.18,-39.83 1288.72,-38.71 1279.78,-33.01 1278.18,-39.83"/>
<text text-anchor="middle" x="1247.5" y="-38.8" font-family="Times,serif" font-size="14.00">5. 发送</text>
</g>
<!-- tc_hw&#45;&gt;tc_hal -->
<g id="edge6" class="edge">
<title>tc_hw&#45;&gt;tc_hal</title>
<path fill="none" stroke="black" stroke-dasharray="5,2" d="M1288.79,-51C1267.52,-51 1240.25,-51 1216.59,-51"/>
<polygon fill="black" stroke="black" points="1216.36,-47.5 1206.36,-51 1216.35,-54.5 1216.36,-47.5"/>
<text text-anchor="middle" x="1247.5" y="-54.8" font-family="Times,serif" font-size="14.00">6. 响应</text>
</g>
<!-- tm_app -->
<g id="node7" class="node">
<title>tm_app</title>
<polygon fill="lightgrey" stroke="black" points="158.5,-207 99.5,-207 99.5,-169 158.5,-169 158.5,-207"/>
<text text-anchor="middle" x="129" y="-191.8" font-family="Arial" font-size="14.00">应用层</text>
<text text-anchor="middle" x="129" y="-176.8" font-family="Arial" font-size="14.00">Logger</text>
</g>
<!-- tm_aconfig -->
<g id="node8" class="node">
<title>tm_aconfig</title>
<polygon fill="#fff3e0" stroke="black" points="567.5,-222 381.5,-222 381.5,-154 567.5,-154 567.5,-222"/>
<text text-anchor="middle" x="474.5" y="-206.8" font-family="Arial" font-size="14.00">AConfig</text>
<text text-anchor="middle" x="474.5" y="-191.8" font-family="Arial" font-size="14.00">查询数据类型</text>
<text text-anchor="middle" x="474.5" y="-176.8" font-family="Arial" font-size="14.00">TM_CPU_TEMP → BMC[0]</text>
<text text-anchor="middle" x="474.5" y="-161.8" font-family="Arial" font-size="14.00">缓存型/实时型</text>
</g>
<!-- tm_app&#45;&gt;tm_aconfig -->
<g id="edge11" class="edge">
<title>tm_app&#45;&gt;tm_aconfig</title>
<path fill="none" stroke="black" d="M158.7,-188C204.9,-188 297.97,-188 371,-188"/>
<polygon fill="black" stroke="black" points="371.16,-191.5 381.16,-188 371.16,-184.5 371.16,-191.5"/>
<text text-anchor="middle" x="318.5" y="-191.8" font-family="Times,serif" font-size="14.00">1. 查询</text>
</g>
<!-- tm_cache -->
<g id="node9" class="node">
<title>tm_cache</title>
<path fill="#fff9c4" stroke="black" d="M1011,-181.48C1011,-184.11 994.42,-186.25 974,-186.25 953.58,-186.25 937,-184.11 937,-181.48 937,-181.48 937,-138.52 937,-138.52 937,-135.89 953.58,-133.75 974,-133.75 994.42,-133.75 1011,-135.89 1011,-138.52 1011,-138.52 1011,-181.48 1011,-181.48"/>
<path fill="none" stroke="black" d="M1011,-181.48C1011,-178.84 994.42,-176.7 974,-176.7 953.58,-176.7 937,-178.84 937,-181.48"/>
<text text-anchor="middle" x="974" y="-163.8" font-family="Arial" font-size="14.00">共享内存</text>
<text text-anchor="middle" x="974" y="-148.8" font-family="Arial" font-size="14.00">遥测缓存</text>
</g>
<!-- tm_aconfig&#45;&gt;tm_cache -->
<g id="edge12" class="edge">
<title>tm_aconfig&#45;&gt;tm_cache</title>
<path fill="none" stroke="black" stroke-dasharray="5,2" d="M567.57,-181.57C608.19,-178.6 656.49,-174.87 700,-171 765.41,-165.19 781.41,-159.34 847,-156 873.37,-154.66 902.87,-155.47 926.69,-156.7"/>
<polygon fill="black" stroke="black" points="926.69,-160.21 936.87,-157.27 927.08,-153.22 926.69,-160.21"/>
<text text-anchor="middle" x="773.5" y="-187.8" font-family="Times,serif" font-size="14.00">2a. 缓存型</text>
<text text-anchor="middle" x="773.5" y="-172.8" font-family="Times,serif" font-size="14.00">直接读取</text>
</g>
<!-- tm_pdl -->
<g id="node10" class="node">
<title>tm_pdl</title>
<polygon fill="lightgrey" stroke="black" points="814,-263 733,-263 733,-225 814,-225 814,-263"/>
<text text-anchor="middle" x="773.5" y="-247.8" font-family="Arial" font-size="14.00">PDL_BMC</text>
<text text-anchor="middle" x="773.5" y="-232.8" font-family="Arial" font-size="14.00">查询 BMC</text>
</g>
<!-- tm_aconfig&#45;&gt;tm_pdl -->
<g id="edge14" class="edge">
<title>tm_aconfig&#45;&gt;tm_pdl</title>
<path fill="none" stroke="black" d="M567.75,-199.68C608.51,-205.54 656.87,-213.43 700,-223 707.56,-224.68 715.48,-226.7 723.21,-228.81"/>
<polygon fill="black" stroke="black" points="722.27,-232.19 732.85,-231.53 724.17,-225.45 722.27,-232.19"/>
<text text-anchor="middle" x="644" y="-241.8" font-family="Times,serif" font-size="14.00">2b. 实时型</text>
<text text-anchor="middle" x="644" y="-226.8" font-family="Times,serif" font-size="14.00">查询设备</text>
</g>
<!-- tm_cache&#45;&gt;tm_app -->
<g id="edge13" class="edge">
<title>tm_cache&#45;&gt;tm_app</title>
<path fill="none" stroke="black" stroke-dasharray="5,2" d="M936.73,-154.42C926.49,-153.06 915.33,-151.77 905,-151 870.12,-148.39 459.69,-138.08 379,-145 303.71,-151.45 217.01,-168.69 168.34,-179.28"/>
<polygon fill="black" stroke="black" points="167.56,-175.86 158.55,-181.43 169.07,-182.7 167.56,-175.86"/>
<text text-anchor="middle" x="644" y="-148.8" font-family="Times,serif" font-size="14.00">3a. 返回(&lt;10μs)</text>
</g>
<!-- tm_pdl&#45;&gt;tm_app -->
<g id="edge21" class="edge">
<title>tm_pdl&#45;&gt;tm_app</title>
<path fill="none" stroke="black" d="M732.7,-249.84C722.09,-251.15 710.63,-252.34 700,-253 650.32,-256.07 637.71,-255.61 588,-253 431.42,-244.78 247.29,-211.29 168.7,-195.86"/>
<polygon fill="black" stroke="black" points="169.25,-192.4 158.76,-193.89 167.89,-199.27 169.25,-192.4"/>
<text text-anchor="middle" x="474.5" y="-254.8" font-family="Times,serif" font-size="14.00">9. 返回</text>
</g>
<!-- tm_pdl&#45;&gt;tm_cache -->
<g id="edge23" class="edge">
<title>tm_pdl&#45;&gt;tm_cache</title>
<path fill="none" stroke="gray" stroke-dasharray="1,5" d="M812.34,-224.89C818.35,-220.83 824.17,-216.18 829,-211 840.93,-198.21 832.67,-186.04 847,-176 869.94,-159.93 901.13,-155.87 926.74,-155.85"/>
<polygon fill="gray" stroke="gray" points="926.9,-159.36 936.97,-156.06 927.04,-152.36 926.9,-159.36"/>
<text text-anchor="middle" x="876" y="-179.8" font-family="Times,serif" font-size="14.00">更新缓存</text>
</g>
<!-- tm_prl -->
<g id="node11" class="node">
<title>tm_prl</title>
<polygon fill="#f3e5f5" stroke="black" points="1003.5,-268 944.5,-268 944.5,-230 1003.5,-230 1003.5,-268"/>
<text text-anchor="middle" x="974" y="-252.8" font-family="Arial" font-size="14.00">PRL</text>
<text text-anchor="middle" x="974" y="-237.8" font-family="Arial" font-size="14.00">编解码</text>
</g>
<!-- tm_pdl&#45;&gt;tm_prl -->
<g id="edge15" class="edge">
<title>tm_pdl&#45;&gt;tm_prl</title>
<path fill="none" stroke="black" d="M814.19,-245C849.05,-245.88 899.47,-247.15 934.1,-248.02"/>
<polygon fill="black" stroke="black" points="934.21,-251.52 944.3,-248.28 934.39,-244.53 934.21,-251.52"/>
<text text-anchor="middle" x="876" y="-250.8" font-family="Times,serif" font-size="14.00">3b. 编码</text>
</g>
<!-- tm_prl&#45;&gt;tm_pdl -->
<g id="edge20" class="edge">
<title>tm_prl&#45;&gt;tm_pdl</title>
<path fill="none" stroke="black" d="M944.41,-237.02C932.46,-232.62 918.28,-228.19 905,-226 879.56,-221.81 872.59,-222.87 847,-226 839.48,-226.92 831.62,-228.36 823.96,-230.03"/>
<polygon fill="black" stroke="black" points="823.01,-226.66 814.06,-232.33 824.59,-233.47 823.01,-226.66"/>
<text text-anchor="middle" x="876" y="-229.8" font-family="Times,serif" font-size="14.00">8. 解码</text>
</g>
<!-- tm_hal -->
<g id="node12" class="node">
<title>tm_hal</title>
<polygon fill="#ffebee" stroke="black" points="1206,-251 1119,-251 1119,-213 1206,-213 1206,-251"/>
<text text-anchor="middle" x="1162.5" y="-235.8" font-family="Arial" font-size="14.00">HAL_UART</text>
<text text-anchor="middle" x="1162.5" y="-220.8" font-family="Arial" font-size="14.00">收发数据</text>
</g>
<!-- tm_prl&#45;&gt;tm_hal -->
<g id="edge16" class="edge">
<title>tm_prl&#45;&gt;tm_hal</title>
<path fill="none" stroke="black" d="M1003.67,-234.28C1015.52,-228.98 1029.6,-223.65 1043,-221 1064.33,-216.78 1088.14,-217.89 1108.8,-220.66"/>
<polygon fill="black" stroke="black" points="1108.56,-224.16 1118.97,-222.18 1109.6,-217.24 1108.56,-224.16"/>
<text text-anchor="middle" x="1072" y="-224.8" font-family="Times,serif" font-size="14.00">4. 发送</text>
</g>
<!-- tm_hal&#45;&gt;tm_prl -->
<g id="edge19" class="edge">
<title>tm_hal&#45;&gt;tm_prl</title>
<path fill="none" stroke="black" d="M1118.87,-235.89C1087.33,-238.76 1044.69,-242.65 1014.04,-245.44"/>
<polygon fill="black" stroke="black" points="1013.37,-241.99 1003.73,-246.38 1014.01,-248.96 1013.37,-241.99"/>
<text text-anchor="middle" x="1072" y="-245.8" font-family="Times,serif" font-size="14.00">7. 接收</text>
</g>
<!-- tm_hw -->
<g id="node13" class="node">
<title>tm_hw</title>
<path fill="lightgrey" stroke="black" d="M1363,-227.48C1363,-230.11 1346.42,-232.25 1326,-232.25 1305.58,-232.25 1289,-230.11 1289,-227.48 1289,-227.48 1289,-184.52 1289,-184.52 1289,-181.89 1305.58,-179.75 1326,-179.75 1346.42,-179.75 1363,-181.89 1363,-184.52 1363,-184.52 1363,-227.48 1363,-227.48"/>
<path fill="none" stroke="black" d="M1363,-227.48C1363,-224.84 1346.42,-222.7 1326,-222.7 1305.58,-222.7 1289,-224.84 1289,-227.48"/>
<text text-anchor="middle" x="1326" y="-209.8" font-family="Arial" font-size="14.00">硬件设备</text>
<text text-anchor="middle" x="1326" y="-194.8" font-family="Arial" font-size="14.00">BMC</text>
</g>
<!-- tm_hal&#45;&gt;tm_hw -->
<g id="edge17" class="edge">
<title>tm_hal&#45;&gt;tm_hw</title>
<path fill="none" stroke="black" d="M1206.15,-229.95C1225.99,-228.51 1249.83,-226.08 1271,-222 1273.65,-221.49 1276.36,-220.9 1279.09,-220.26"/>
<polygon fill="black" stroke="black" points="1280.11,-223.61 1288.93,-217.74 1278.38,-216.83 1280.11,-223.61"/>
<text text-anchor="middle" x="1247.5" y="-231.8" font-family="Times,serif" font-size="14.00">5. 请求</text>
</g>
<!-- tm_hw&#45;&gt;tm_pdl -->
<g id="edge22" class="edge">
<title>tm_hw&#45;&gt;tm_pdl</title>
<path fill="none" stroke="gray" stroke-dasharray="1,5" d="M1288.84,-197.6C1282.91,-196.52 1276.81,-195.59 1271,-195 1250.22,-192.9 1244.89,-194.77 1224,-195 1143.54,-195.89 1123.31,-194.02 1043,-199 955.6,-204.42 932.51,-200.16 847,-219 839.41,-220.67 831.52,-222.88 823.85,-225.29"/>
<polygon fill="gray" stroke="gray" points="822.7,-221.99 814.29,-228.44 824.89,-228.64 822.7,-221.99"/>
<text text-anchor="middle" x="1072" y="-202.8" font-family="Times,serif" font-size="14.00">周期上报</text>
</g>
<!-- tm_hw&#45;&gt;tm_hal -->
<g id="edge18" class="edge">
<title>tm_hw&#45;&gt;tm_hal</title>
<path fill="none" stroke="black" d="M1288.58,-200.54C1269.18,-198.72 1245.04,-198.22 1224,-203 1217.89,-204.39 1211.67,-206.48 1205.67,-208.91"/>
<polygon fill="black" stroke="black" points="1204.2,-205.73 1196.45,-212.95 1207.01,-212.14 1204.2,-205.73"/>
<text text-anchor="middle" x="1247.5" y="-206.8" font-family="Times,serif" font-size="14.00">6. 响应</text>
</g>
<!-- note -->
<g id="node14" class="node">
<title>note</title>
<polygon fill="#fffde7" stroke="black" points="252,-380 0,-380 0,-312 258,-312 258,-374 252,-380"/>
<polyline fill="none" stroke="black" points="252,-380 252,-374 "/>
<polyline fill="none" stroke="black" points="258,-374 252,-374 "/>
<text text-anchor="middle" x="129" y="-364.8" font-family="Arial" font-size="14.00">性能指标：</text>
<text text-anchor="middle" x="129" y="-349.8" font-family="Arial" font-size="14.00">• 缓存型遥测：&lt;10μs</text>
<text text-anchor="middle" x="129" y="-334.8" font-family="Arial" font-size="14.00">• 实时型遥测：&lt;1ms (超时降级到缓存)</text>
<text text-anchor="middle" x="129" y="-319.8" font-family="Arial" font-size="14.00">• 遥控命令：&lt;10ms</text>
</g>
</g>
</svg>
