<?xml version="1.0" encoding="UTF-8" standalone="no"?>
<!DOCTYPE svg PUBLIC "-//W3C//DTD SVG 1.1//EN"
 "http://www.w3.org/Graphics/SVG/1.1/DTD/svg11.dtd">
<!-- Generated by graphviz version 2.43.0 (0)
 -->
<!-- Title: PRL_Protocol Pages: 1 -->
<svg width="4681pt" height="368pt"
 viewBox="0.00 0.00 4681.00 367.50" xmlns="http://www.w3.org/2000/svg" xmlns:xlink="http://www.w3.org/1999/xlink">
<g id="graph0" class="graph" transform="scale(1 1) rotate(0) translate(4 363.5)">
<title>PRL_Protocol</title>
<polygon fill="white" stroke="transparent" points="-4,4 -4,-363.5 4677,-363.5 4677,4 -4,4"/>
<g id="clust1" class="cluster">
<title>cluster_encode</title>
<polygon fill="#e8f5e9" stroke="black" points="4066.5,-8 4066.5,-351.5 4220.5,-351.5 4220.5,-8 4066.5,-8"/>
<text text-anchor="middle" x="4143.5" y="-336.3" font-family="Times,serif" font-size="14.00">编码流程</text>
</g>
<g id="clust2" class="cluster">
<title>cluster_decode</title>
<polygon fill="#e3f2fd" stroke="black" points="4228.5,-8 4228.5,-350.5 4426.5,-350.5 4426.5,-8 4228.5,-8"/>
<text text-anchor="middle" x="4327.5" y="-335.3" font-family="Times,serif" font-size="14.00">解码流程</text>
</g>
<!-- header -->
<g id="node1" class="node">
<title>header</title>
<polygon fill="#f3e5f5" stroke="black" points="0,-283 0,-319 1561,-319 1561,-283 0,-283"/>
<text text-anchor="start" x="8" y="-297.3" font-family="Arial" font-size="14.00">协议头(20 字节)</text>
<polyline fill="none" stroke="black" points="116,-283 116,-319 "/>
<text text-anchor="start" x="124" y="-297.3" font-family="Arial" font-size="14.00">magic (2B): 0xAA55</text>
<polyline fill="none" stroke="black" points="253,-283 253,-319 "/>
<text text-anchor="start" x="261" y="-297.3" font-family="Arial" font-size="14.00">version (1B): 0x10</text>
<polyline fill="none" stroke="black" points="379,-283 379,-319 "/>
<text text-anchor="start" x="387" y="-297.3" font-family="Arial" font-size="14.00">dev_type (1B): 设备类型</text>
<polyline fill="none" stroke="black" points="544,-283 544,-319 "/>
<text text-anchor="start" x="552" y="-297.3" font-family="Arial" font-size="14.00">msg_type (1B): 消息类型</text>
<polyline fill="none" stroke="black" points="714,-283 714,-319 "/>
<text text-anchor="start" x="722" y="-297.3" font-family="Arial" font-size="14.00">flags (1B): 标志位</text>
<polyline fill="none" stroke="black" points="839,-283 839,-319 "/>
<text text-anchor="start" x="847" y="-297.3" font-family="Arial" font-size="14.00">length (2B): 负载长度</text>
<polyline fill="none" stroke="black" points="986,-283 986,-319 "/>
<text text-anchor="start" x="994" y="-297.3" font-family="Arial" font-size="14.00">seq (4B): 序列号</text>
<polyline fill="none" stroke="black" points="1104,-283 1104,-319 "/>
<text text-anchor="start" x="1112" y="-297.3" font-family="Arial" font-size="14.00">timestamp (4B): 时间戳</text>
<polyline fill="none" stroke="black" points="1264,-283 1264,-319 "/>
<text text-anchor="start" x="1272" y="-297.3" font-family="Arial" font-size="14.00">crc16 (2B): CRC16 校验</text>
<polyline fill="none" stroke="black" points="1427,-283 1427,-319 "/>
<text text-anchor="start" x="1435" y="-297.3" font-family="Arial" font-size="14.00">reserved (2B): 保留</text>
</g>
<!-- packet -->
<g id="node5" class="node">
<title>packet</title>
<polygon fill="#c5e1a5" stroke="black" points="1004.5,-164.5 1004.5,-200.5 1332.5,-200.5 1332.5,-164.5 1004.5,-164.5"/>
<text text-anchor="start" x="1012.5" y="-178.8" font-family="Arial" font-size="14.00">完整报文结构</text>
<polyline fill="none" stroke="black" points="1106.5,-164.5 1106.5,-200.5 "/>
<text text-anchor="start" x="1114.5" y="-178.8" font-family="Arial" font-size="14.00">协议头(20B)</text>
<polyline fill="none" stroke="black" points="1198.5,-164.5 1198.5,-200.5 "/>
<text text-anchor="start" x="1206.5" y="-178.8" font-family="Arial" font-size="14.00">负载数据(0&#45;4076B)</text>
</g>
<!-- header&#45;&gt;packet -->
<g id="edge1" class="edge">
<title>header&#45;&gt;packet:f1</title>
<path fill="none" stroke="black" d="M963.78,-282.99C1049.97,-270.15 1136.95,-248.19 1150.64,-211.26"/>
<polygon fill="black" stroke="black" points="1154.16,-211.46 1152.5,-201 1147.27,-210.21 1154.16,-211.46"/>
<text text-anchor="middle" x="1161" y="-222.8" font-family="Times,serif" font-size="14.00">包含</text>
</g>
<!-- dev_types -->
<g id="node2" class="node">
<title>dev_types</title>
<polygon fill="#e1bee7" stroke="black" points="1712.5,-283 1712.5,-319 2960.5,-319 2960.5,-283 1712.5,-283"/>
<text text-anchor="start" x="1720.5" y="-297.3" font-family="Arial" font-size="14.00">设备类型(dev_type)</text>
<polyline fill="none" stroke="black" points="1849.5,-283 1849.5,-319 "/>
<text text-anchor="start" x="1857.5" y="-297.3" font-family="Arial" font-size="14.00">0x01: MCU (微控制器)</text>
<polyline fill="none" stroke="black" points="2004.5,-283 2004.5,-319 "/>
<text text-anchor="start" x="2012.5" y="-297.3" font-family="Arial" font-size="14.00">0x02: CCM (通信管理板)</text>
<polyline fill="none" stroke="black" points="2173.5,-283 2173.5,-319 "/>
<text text-anchor="start" x="2181.5" y="-297.3" font-family="Arial" font-size="14.00">0x03: PMC (载荷管理器)</text>
<polyline fill="none" stroke="black" points="2341.5,-283 2341.5,-319 "/>
<text text-anchor="start" x="2349.5" y="-297.3" font-family="Arial" font-size="14.00">0x04: GSC (地面站)</text>
<polyline fill="none" stroke="black" points="2480.5,-283 2480.5,-319 "/>
<text text-anchor="start" x="2488.5" y="-297.3" font-family="Arial" font-size="14.00">0x05: POWER (电源板)</text>
<polyline fill="none" stroke="black" points="2641.5,-283 2641.5,-319 "/>
<text text-anchor="start" x="2649.5" y="-297.3" font-family="Arial" font-size="14.00">0x80: SATELLITE (卫星)</text>
<polyline fill="none" stroke="black" points="2806.5,-283 2806.5,-319 "/>
<text text-anchor="start" x="2814.5" y="-297.3" font-family="Arial" font-size="14.00">0x81: BMC (基板管理)</text>
</g>
<!-- mcu_msgs -->
<g id="node3" class="node">
<title>mcu_msgs</title>
<polygon fill="#e1bee7" stroke="black" points="2979,-283 2979,-319 4056,-319 4056,-283 2979,-283"/>
<text text-anchor="start" x="2987" y="-297.3" font-family="Arial" font-size="14.00">MCU 消息类型</text>
<polyline fill="none" stroke="black" points="3088,-283 3088,-319 "/>
<text text-anchor="start" x="3096" y="-297.3" font-family="Arial" font-size="14.00">0x01: GET_VERSION</text>
<polyline fill="none" stroke="black" points="3239,-283 3239,-319 "/>
<text text-anchor="start" x="3247" y="-297.3" font-family="Arial" font-size="14.00">0x02: RESET</text>
<polyline fill="none" stroke="black" points="3337,-283 3337,-319 "/>
<text text-anchor="start" x="3345" y="-297.3" font-family="Arial" font-size="14.00">0x03: GET_STATUS</text>
<polyline fill="none" stroke="black" points="3478,-283 3478,-319 "/>
<text text-anchor="start" x="3486" y="-297.3" font-family="Arial" font-size="14.00">0x10: FW_UPGRADE_START</text>
<polyline fill="none" stroke="black" points="3679,-283 3679,-319 "/>
<text text-anchor="start" x="3687" y="-297.3" font-family="Arial" font-size="14.00">0x11: FW_UPGRADE_DATA</text>
<polyline fill="none" stroke="black" points="3870,-283 3870,-319 "/>
<text text-anchor="start" x="3878" y="-297.3" font-family="Arial" font-size="14.00">0x12: FW_UPGRADE_END</text>
</g>
<!-- payload -->
<g id="node4" class="node">
<title>payload</title>
<polygon fill="#fff9c4" stroke="black" points="1694,-327.5 1579,-327.5 1579,-274.5 1694,-274.5 1694,-327.5"/>
<text text-anchor="start" x="1587" y="-312.3" font-family="Arial" font-size="14.00">负载数据 (变长)</text>
<text text-anchor="start" x="1587" y="-297.3" font-family="Arial" font-size="14.00">最大 4076 字节</text>
<text text-anchor="middle" x="1636.5" y="-282.3" font-family="Arial" font-size="14.00">(4096 &#45; 20)</text>
</g>
<!-- payload&#45;&gt;packet -->
<g id="edge2" class="edge">
<title>payload&#45;&gt;packet:f2</title>
<path fill="none" stroke="black" d="M1605.5,-274.5C1594.61,-266.45 1581.97,-258.09 1569.5,-252 1474.31,-205.54 1444.69,-183.87 1343.52,-182.56"/>
<polygon fill="black" stroke="black" points="1343.52,-179.06 1333.5,-182.5 1343.48,-186.06 1343.52,-179.06"/>
<text text-anchor="middle" x="1547" y="-222.8" font-family="Times,serif" font-size="14.00">包含</text>
</g>
<!-- enc1 -->
<g id="node6" class="node">
<title>enc1</title>
<polygon fill="lightgrey" stroke="black" points="4074.5,-282 4074.5,-320 4212.5,-320 4212.5,-282 4074.5,-282"/>
<text text-anchor="middle" x="4143.5" y="-304.8" font-family="Arial" font-size="14.00">1. 填充协议头</text>
<text text-anchor="middle" x="4143.5" y="-289.8" font-family="Arial" font-size="14.00">dev_type, msg_type</text>
</g>
<!-- enc2 -->
<g id="node7" class="node">
<title>enc2</title>
<polygon fill="lightgrey" stroke="black" points="4085,-164.5 4085,-200.5 4202,-200.5 4202,-164.5 4085,-164.5"/>
<text text-anchor="middle" x="4143.5" y="-178.8" font-family="Arial" font-size="14.00">2. 复制负载数据</text>
</g>
<!-- enc1&#45;&gt;enc2 -->
<g id="edge3" class="edge">
<title>enc1&#45;&gt;enc2</title>
<path fill="none" stroke="black" d="M4143.5,-281.8C4143.5,-262.85 4143.5,-232.96 4143.5,-211.11"/>
<polygon fill="black" stroke="black" points="4147,-210.82 4143.5,-200.82 4140,-210.82 4147,-210.82"/>
</g>
<!-- enc3 -->
<g id="node8" class="node">
<title>enc3</title>
<polygon fill="lightgrey" stroke="black" points="4090,-90.5 4090,-126.5 4197,-126.5 4197,-90.5 4090,-90.5"/>
<text text-anchor="middle" x="4143.5" y="-104.8" font-family="Arial" font-size="14.00">3. 计算 CRC16</text>
</g>
<!-- enc2&#45;&gt;enc3 -->
<g id="edge4" class="edge">
<title>enc2&#45;&gt;enc3</title>
<path fill="none" stroke="black" d="M4143.5,-164.44C4143.5,-156.31 4143.5,-146.38 4143.5,-137.2"/>
<polygon fill="black" stroke="black" points="4147,-136.94 4143.5,-126.94 4140,-136.94 4147,-136.94"/>
</g>
<!-- enc4 -->
<g id="node9" class="node">
<title>enc4</title>
<polygon fill="lightgrey" stroke="black" points="4085,-16.5 4085,-52.5 4202,-52.5 4202,-16.5 4085,-16.5"/>
<text text-anchor="middle" x="4143.5" y="-30.8" font-family="Arial" font-size="14.00">4. 输出完整报文</text>
</g>
<!-- enc3&#45;&gt;enc4 -->
<g id="edge5" class="edge">
<title>enc3&#45;&gt;enc4</title>
<path fill="none" stroke="black" d="M4143.5,-90.44C4143.5,-82.31 4143.5,-72.38 4143.5,-63.2"/>
<polygon fill="black" stroke="black" points="4147,-62.94 4143.5,-52.94 4140,-62.94 4147,-62.94"/>
</g>
<!-- dec1 -->
<g id="node10" class="node">
<title>dec1</title>
<polygon fill="lightgrey" stroke="black" points="4277.5,-283 4277.5,-319 4377.5,-319 4377.5,-283 4277.5,-283"/>
<text text-anchor="middle" x="4327.5" y="-297.3" font-family="Arial" font-size="14.00">1. 验证 magic</text>
</g>
<!-- dec2 -->
<g id="node11" class="node">
<title>dec2</title>
<polygon fill="lightgrey" stroke="black" points="4274,-164.5 4274,-200.5 4381,-200.5 4381,-164.5 4274,-164.5"/>
<text text-anchor="middle" x="4327.5" y="-178.8" font-family="Arial" font-size="14.00">2. 验证 CRC16</text>
</g>
<!-- dec1&#45;&gt;dec2 -->
<g id="edge6" class="edge">
<title>dec1&#45;&gt;dec2</title>
<path fill="none" stroke="black" d="M4327.5,-282.81C4327.5,-263.88 4327.5,-233.18 4327.5,-210.92"/>
<polygon fill="black" stroke="black" points="4331,-210.76 4327.5,-200.76 4324,-210.76 4331,-210.76"/>
</g>
<!-- dec3 -->
<g id="node12" class="node">
<title>dec3</title>
<polygon fill="lightgrey" stroke="black" points="4237,-90.5 4237,-126.5 4418,-126.5 4418,-90.5 4237,-90.5"/>
<text text-anchor="middle" x="4327.5" y="-104.8" font-family="Arial" font-size="14.00">3. 提取 dev_type/msg_type</text>
</g>
<!-- dec2&#45;&gt;dec3 -->
<g id="edge7" class="edge">
<title>dec2&#45;&gt;dec3</title>
<path fill="none" stroke="black" d="M4327.5,-164.44C4327.5,-156.31 4327.5,-146.38 4327.5,-137.2"/>
<polygon fill="black" stroke="black" points="4331,-136.94 4327.5,-126.94 4324,-136.94 4331,-136.94"/>
</g>
<!-- dec4 -->
<g id="node13" class="node">
<title>dec4</title>
<polygon fill="lightgrey" stroke="black" points="4247.5,-16.5 4247.5,-52.5 4407.5,-52.5 4407.5,-16.5 4247.5,-16.5"/>
<text text-anchor="middle" x="4327.5" y="-30.8" font-family="Arial" font-size="14.00">4. 零拷贝返回负载指针</text>
</g>
<!-- dec3&#45;&gt;dec4 -->
<g id="edge8" class="edge">
<title>dec3&#45;&gt;dec4</title>
<path fill="none" stroke="black" d="M4327.5,-90.44C4327.5,-82.31 4327.5,-72.38 4327.5,-63.2"/>
<polygon fill="black" stroke="black" points="4331,-62.94 4327.5,-52.94 4324,-62.94 4331,-62.94"/>
</g>
<!-- features -->
<g id="node14" class="node">
<title>features</title>
<polygon fill="#fffde7" stroke="black" points="4667,-350 4434,-350 4434,-252 4673,-252 4673,-344 4667,-350"/>
<polyline fill="none" stroke="black" points="4667,-350 4667,-344 "/>
<polyline fill="none" stroke="black" points="4673,-344 4667,-344 "/>
<text text-anchor="middle" x="4553.5" y="-334.8" font-family="Arial" font-size="14.00">协议特性：</text>
<text text-anchor="middle" x="4553.5" y="-319.8" font-family="Arial" font-size="14.00">• 统一格式：所有设备使用相同协议</text>
<text text-anchor="middle" x="4553.5" y="-304.8" font-family="Arial" font-size="14.00">• 零拷贝：解码时直接返回负载指针</text>
<text text-anchor="middle" x="4553.5" y="-289.8" font-family="Arial" font-size="14.00">• CRC 校验：保证数据完整性</text>
<text text-anchor="middle" x="4553.5" y="-274.8" font-family="Arial" font-size="14.00">• 原子序列号：线程安全</text>
<text text-anchor="middle" x="4553.5" y="-259.8" font-family="Arial" font-size="14.00">• 最大报文：4096 字节</text>
</g>
</g>
</svg>
