<?xml version="1.0" encoding="UTF-8" standalone="no"?>
<!DOCTYPE svg PUBLIC "-//W3C//DTD SVG 1.1//EN"
 "http://www.w3.org/Graphics/SVG/1.1/DTD/svg11.dtd">
<!-- Generated by graphviz version 2.43.0 (0)
 -->
<!-- Title: Build_System Pages: 1 -->
<svg width="680pt" height="1024pt"
 viewBox="0.00 0.00 679.69 1023.50" xmlns="http://www.w3.org/2000/svg" xmlns:xlink="http://www.w3.org/1999/xlink">
<g id="graph0" class="graph" transform="scale(1 1) rotate(0) translate(4 1019.5)">
<title>Build_System</title>
<polygon fill="white" stroke="transparent" points="-4,4 -4,-1019.5 675.69,-1019.5 675.69,4 -4,4"/>
<g id="clust1" class="cluster">
<title>cluster_kconfig</title>
<polygon fill="#e3f2fd" stroke="black" points="309.69,-439 309.69,-722.5 600.69,-722.5 600.69,-439 309.69,-439"/>
<text text-anchor="middle" x="455.19" y="-707.3" font-family="Times,serif" font-size="14.00">Kconfig 配置系统</text>
</g>
<g id="clust2" class="cluster">
<title>cluster_cmake</title>
<polygon fill="#f3e5f5" stroke="black" points="153.69,-172 153.69,-516 301.69,-516 301.69,-172 153.69,-172"/>
<text text-anchor="middle" x="227.69" y="-500.8" font-family="Times,serif" font-size="14.00">CMake 构建系统</text>
</g>
<!-- user -->
<g id="node1" class="node">
<title>user</title>
<polygon fill="#e8f5e9" stroke="black" points="222.19,-900.5 163.19,-900.5 163.19,-864.5 222.19,-864.5 222.19,-900.5"/>
<text text-anchor="middle" x="192.69" y="-878.8" font-family="Arial" font-size="14.00">开发者</text>
</g>
<!-- config_select -->
<g id="node2" class="node">
<title>config_select</title>
<polygon fill="#fff3e0" stroke="black" points="301.19,-699 84.19,-699 84.19,-646 301.19,-646 301.19,-699"/>
<text text-anchor="middle" x="192.69" y="-683.8" font-family="Arial" font-size="14.00">选择配置</text>
<text text-anchor="middle" x="192.69" y="-668.8" font-family="Arial" font-size="14.00">python3 build.py config</text>
<text text-anchor="middle" x="192.69" y="-653.8" font-family="Arial" font-size="14.00">ccm_h200p100_debug_defconfig</text>
</g>
<!-- user&#45;&gt;config_select -->
<g id="edge8" class="edge">
<title>user&#45;&gt;config_select</title>
<path fill="none" stroke="black" d="M192.69,-864.48C192.69,-830.7 192.69,-754.58 192.69,-709.3"/>
<polygon fill="black" stroke="black" points="196.19,-709.04 192.69,-699.04 189.19,-709.04 196.19,-709.04"/>
</g>
<!-- menuconfig -->
<g id="node5" class="node">
<title>menuconfig</title>
<polygon fill="none" stroke="black" stroke-dasharray="5,2" points="447.19,-595 318.19,-595 318.19,-557 447.19,-557 447.19,-595"/>
<text text-anchor="middle" x="382.69" y="-579.8" font-family="Arial" font-size="14.00">menuconfig</text>
<text text-anchor="middle" x="382.69" y="-564.8" font-family="Arial" font-size="14.00">图形化配置 (可选)</text>
</g>
<!-- user&#45;&gt;menuconfig -->
<g id="edge10" class="edge">
<title>user&#45;&gt;menuconfig</title>
<path fill="none" stroke="black" stroke-dasharray="5,2" d="M162.74,-864.5C97.05,-825.12 -48.79,-724.98 16.69,-646 52.92,-602.29 211.66,-586.08 307.79,-580.21"/>
<polygon fill="black" stroke="black" points="308.26,-583.69 318.03,-579.61 307.85,-576.7 308.26,-583.69"/>
<text text-anchor="middle" x="45.69" y="-668.8" font-family="Times,serif" font-size="14.00">高级用户</text>
</g>
<!-- compile -->
<g id="node11" class="node">
<title>compile</title>
<polygon fill="#c5e1a5" stroke="black" points="497.19,-143 350.19,-143 350.19,-90 497.19,-90 497.19,-143"/>
<text text-anchor="middle" x="423.69" y="-127.8" font-family="Arial" font-size="14.00">编译</text>
<text text-anchor="middle" x="423.69" y="-112.8" font-family="Arial" font-size="14.00">python3 build.py build</text>
<text text-anchor="middle" x="423.69" y="-97.8" font-family="Arial" font-size="14.00">cmake &#45;&#45;build _build</text>
</g>
<!-- user&#45;&gt;compile -->
<g id="edge11" class="edge">
<title>user&#45;&gt;compile</title>
<path fill="none" stroke="black" d="M192.07,-864.47C192.06,-835.66 196.69,-777.67 231.69,-749.5 296.42,-697.38 539.22,-773.7 604.69,-722.5 622.73,-708.39 620.69,-696.41 620.69,-673.5 620.69,-673.5 620.69,-673.5 620.69,-198 620.69,-146.02 561.19,-126.86 507.59,-120.15"/>
<polygon fill="black" stroke="black" points="507.65,-116.63 497.32,-119 506.87,-123.59 507.65,-116.63"/>
</g>
<!-- defconfig -->
<g id="node3" class="node">
<title>defconfig</title>
<polygon fill="lightgrey" stroke="black" points="592.19,-595 465.19,-595 465.19,-557 592.19,-557 592.19,-595"/>
<text text-anchor="middle" x="528.69" y="-579.8" font-family="Arial" font-size="14.00">defconfig 文件</text>
<text text-anchor="middle" x="528.69" y="-564.8" font-family="Arial" font-size="14.00">configs/*.defconfig</text>
</g>
<!-- config_select&#45;&gt;defconfig -->
<g id="edge9" class="edge">
<title>config_select&#45;&gt;defconfig</title>
<path fill="none" stroke="black" d="M269.21,-645.96C302.65,-635.18 342.43,-622.87 378.69,-613 410.2,-604.42 420.43,-603.43 455.17,-595.32"/>
<polygon fill="black" stroke="black" points="456.18,-598.68 465.1,-592.96 454.56,-591.87 456.18,-598.68"/>
</g>
<!-- dotconfig -->
<g id="node6" class="node">
<title>dotconfig</title>
<polygon fill="lightgrey" stroke="black" points="427.19,-485 338.19,-485 338.19,-447 427.19,-447 427.19,-485"/>
<text text-anchor="middle" x="382.69" y="-469.8" font-family="Arial" font-size="14.00">.config 文件</text>
<text text-anchor="middle" x="382.69" y="-454.8" font-family="Arial" font-size="14.00">当前配置</text>
</g>
<!-- defconfig&#45;&gt;dotconfig -->
<g id="edge1" class="edge">
<title>defconfig&#45;&gt;dotconfig</title>
<path fill="none" stroke="black" d="M504.25,-556.92C479.93,-538.93 442.45,-511.21 415.54,-491.3"/>
<polygon fill="black" stroke="black" points="417.32,-488.27 407.2,-485.14 413.16,-493.9 417.32,-488.27"/>
<text text-anchor="middle" x="491.19" y="-527.8" font-family="Times,serif" font-size="14.00">加载</text>
</g>
<!-- kconfig -->
<g id="node4" class="node">
<title>kconfig</title>
<polygon fill="lightgrey" stroke="black" points="436.19,-691.5 329.19,-691.5 329.19,-653.5 436.19,-653.5 436.19,-691.5"/>
<text text-anchor="middle" x="382.69" y="-676.3" font-family="Arial" font-size="14.00">Kconfig 规则</text>
<text text-anchor="middle" x="382.69" y="-661.3" font-family="Arial" font-size="14.00">各模块 Kconfig</text>
</g>
<!-- kconfig&#45;&gt;menuconfig -->
<g id="edge2" class="edge">
<title>kconfig&#45;&gt;menuconfig</title>
<path fill="none" stroke="black" d="M382.69,-653.28C382.69,-639.68 382.69,-620.85 382.69,-605.3"/>
<polygon fill="black" stroke="black" points="386.19,-605.16 382.69,-595.16 379.19,-605.16 386.19,-605.16"/>
<text text-anchor="middle" x="411.69" y="-616.8" font-family="Times,serif" font-size="14.00">定义选项</text>
</g>
<!-- menuconfig&#45;&gt;dotconfig -->
<g id="edge3" class="edge">
<title>menuconfig&#45;&gt;dotconfig</title>
<path fill="none" stroke="black" stroke-dasharray="5,2" d="M382.69,-556.68C382.69,-539.82 382.69,-514.57 382.69,-495.15"/>
<polygon fill="black" stroke="black" points="386.19,-495.05 382.69,-485.05 379.19,-495.05 386.19,-495.05"/>
<text text-anchor="middle" x="411.69" y="-527.8" font-family="Times,serif" font-size="14.00">用户修改</text>
</g>
<!-- kconfig_cmake -->
<g id="node8" class="node">
<title>kconfig_cmake</title>
<polygon fill="lightgrey" stroke="black" points="292.69,-396 186.69,-396 186.69,-358 292.69,-358 292.69,-396"/>
<text text-anchor="middle" x="239.69" y="-380.8" font-family="Arial" font-size="14.00">Kconfig.cmake</text>
<text text-anchor="middle" x="239.69" y="-365.8" font-family="Arial" font-size="14.00">读取 .config</text>
</g>
<!-- dotconfig&#45;&gt;kconfig_cmake -->
<g id="edge5" class="edge">
<title>dotconfig&#45;&gt;kconfig_cmake</title>
<path fill="none" stroke="black" d="M353.06,-446.97C331.29,-433.73 301.54,-415.63 277.98,-401.3"/>
<polygon fill="black" stroke="black" points="279.64,-398.21 269.28,-396 276,-404.19 279.64,-398.21"/>
<text text-anchor="middle" x="334.19" y="-417.8" font-family="Times,serif" font-size="14.00">读取</text>
</g>
<!-- cmake_main -->
<g id="node7" class="node">
<title>cmake_main</title>
<polygon fill="lightgrey" stroke="black" points="292.69,-485 186.69,-485 186.69,-447 292.69,-447 292.69,-485"/>
<text text-anchor="middle" x="239.69" y="-469.8" font-family="Arial" font-size="14.00">CMakeLists.txt</text>
<text text-anchor="middle" x="239.69" y="-454.8" font-family="Arial" font-size="14.00">顶层构建文件</text>
</g>
<!-- cmake_main&#45;&gt;kconfig_cmake -->
<g id="edge4" class="edge">
<title>cmake_main&#45;&gt;kconfig_cmake</title>
<path fill="none" stroke="black" d="M239.69,-446.97C239.69,-435.19 239.69,-419.56 239.69,-406.16"/>
<polygon fill="black" stroke="black" points="243.19,-406 239.69,-396 236.19,-406 243.19,-406"/>
<text text-anchor="middle" x="254.19" y="-417.8" font-family="Times,serif" font-size="14.00">包含</text>
</g>
<!-- cmake_vars -->
<g id="node9" class="node">
<title>cmake_vars</title>
<polygon fill="lightgrey" stroke="black" points="278.69,-307 186.69,-307 186.69,-269 278.69,-269 278.69,-307"/>
<text text-anchor="middle" x="232.69" y="-291.8" font-family="Arial" font-size="14.00">CMake 变量</text>
<text text-anchor="middle" x="232.69" y="-276.8" font-family="Arial" font-size="14.00">CONFIG_*</text>
</g>
<!-- kconfig_cmake&#45;&gt;cmake_vars -->
<g id="edge6" class="edge">
<title>kconfig_cmake&#45;&gt;cmake_vars</title>
<path fill="none" stroke="black" d="M238.24,-357.97C237.29,-346.19 236.03,-330.56 234.95,-317.16"/>
<polygon fill="black" stroke="black" points="238.43,-316.69 234.13,-307 231.45,-317.25 238.43,-316.69"/>
<text text-anchor="middle" x="250.19" y="-328.8" font-family="Times,serif" font-size="14.00">生成</text>
</g>
<!-- cmake_targets -->
<g id="node10" class="node">
<title>cmake_targets</title>
<polygon fill="lightgrey" stroke="black" points="293.69,-218 161.69,-218 161.69,-180 293.69,-180 293.69,-218"/>
<text text-anchor="middle" x="227.69" y="-202.8" font-family="Arial" font-size="14.00">构建目标</text>
<text text-anchor="middle" x="227.69" y="-187.8" font-family="Arial" font-size="14.00">OSAL, HAL, PDL...</text>
</g>
<!-- cmake_vars&#45;&gt;cmake_targets -->
<g id="edge7" class="edge">
<title>cmake_vars&#45;&gt;cmake_targets</title>
<path fill="none" stroke="black" d="M231.65,-268.97C230.97,-257.19 230.07,-241.56 229.3,-228.16"/>
<polygon fill="black" stroke="black" points="232.79,-227.79 228.72,-218 225.8,-228.19 232.79,-227.79"/>
<text text-anchor="middle" x="258.69" y="-239.8" font-family="Times,serif" font-size="14.00">条件编译</text>
</g>
<!-- cmake_targets&#45;&gt;compile -->
<g id="edge12" class="edge">
<title>cmake_targets&#45;&gt;compile</title>
<path fill="none" stroke="black" d="M271.67,-179.93C295.3,-170.23 325.01,-158.03 351.89,-146.99"/>
<polygon fill="black" stroke="black" points="353.34,-150.17 361.26,-143.14 350.68,-143.7 353.34,-150.17"/>
</g>
<!-- output -->
<g id="node12" class="node">
<title>output</title>
<polygon fill="#fff9c4" stroke="black" points="465.19,-53 462.19,-57 441.19,-57 438.19,-53 382.19,-53 382.19,0 465.19,0 465.19,-53"/>
<text text-anchor="middle" x="423.69" y="-37.8" font-family="Arial" font-size="14.00">输出产物</text>
<text text-anchor="middle" x="423.69" y="-22.8" font-family="Arial" font-size="14.00">_build/bin/*</text>
<text text-anchor="middle" x="423.69" y="-7.8" font-family="Arial" font-size="14.00">_build/lib/*</text>
</g>
<!-- compile&#45;&gt;output -->
<g id="edge13" class="edge">
<title>compile&#45;&gt;output</title>
<path fill="none" stroke="black" d="M423.69,-89.57C423.69,-81.34 423.69,-72.08 423.69,-63.28"/>
<polygon fill="black" stroke="black" points="427.19,-63.24 423.69,-53.24 420.19,-63.24 427.19,-63.24"/>
</g>
<!-- config_examples -->
<g id="node13" class="node">
<title>config_examples</title>
<polygon fill="#fffde7" stroke="black" points="467.19,-1015.5 240.19,-1015.5 240.19,-749.5 473.19,-749.5 473.19,-1009.5 467.19,-1015.5"/>
<polyline fill="none" stroke="black" points="467.19,-1015.5 467.19,-1009.5 "/>
<polyline fill="none" stroke="black" points="473.19,-1009.5 467.19,-1009.5 "/>
<text text-anchor="middle" x="356.69" y="-1000.3" font-family="Arial" font-size="14.00">配置示例：</text>
<text text-anchor="middle" x="356.69" y="-969.3" font-family="Arial" font-size="14.00">产品配置：</text>
<text text-anchor="middle" x="356.69" y="-954.3" font-family="Arial" font-size="14.00">• ccm_h200p100_debug_defconfig</text>
<text text-anchor="middle" x="356.69" y="-939.3" font-family="Arial" font-size="14.00">• ccm_h200p100_release_defconfig</text>
<text text-anchor="middle" x="356.69" y="-908.3" font-family="Arial" font-size="14.00">测试配置：</text>
<text text-anchor="middle" x="356.69" y="-893.3" font-family="Arial" font-size="14.00">• tests_x86_full_defconfig</text>
<text text-anchor="middle" x="356.69" y="-878.3" font-family="Arial" font-size="14.00">• tests_x86_pdl_defconfig</text>
<text text-anchor="middle" x="356.69" y="-863.3" font-family="Arial" font-size="14.00">• tests_x86_minimal_defconfig</text>
<text text-anchor="middle" x="356.69" y="-832.3" font-family="Arial" font-size="14.00">配置选项：</text>
<text text-anchor="middle" x="356.69" y="-817.3" font-family="Arial" font-size="14.00">• CONFIG_OSAL=y</text>
<text text-anchor="middle" x="356.69" y="-802.3" font-family="Arial" font-size="14.00">• CONFIG_HAL=y</text>
<text text-anchor="middle" x="356.69" y="-787.3" font-family="Arial" font-size="14.00">• CONFIG_PDL=y</text>
<text text-anchor="middle" x="356.69" y="-772.3" font-family="Arial" font-size="14.00">• CONFIG_PRL_MCU=y</text>
<text text-anchor="middle" x="356.69" y="-757.3" font-family="Arial" font-size="14.00">• CONFIG_BUILD_TESTING=y</text>
</g>
<!-- features -->
<g id="node14" class="node">
<title>features</title>
<polygon fill="#e1f5fe" stroke="black" points="665.69,-931.5 491.69,-931.5 491.69,-833.5 671.69,-833.5 671.69,-925.5 665.69,-931.5"/>
<polyline fill="none" stroke="black" points="665.69,-931.5 665.69,-925.5 "/>
<polyline fill="none" stroke="black" points="671.69,-925.5 665.69,-925.5 "/>
<text text-anchor="middle" x="581.69" y="-916.3" font-family="Arial" font-size="14.00">构建系统特性：</text>
<text text-anchor="middle" x="581.69" y="-901.3" font-family="Arial" font-size="14.00">• 图形化配置 (menuconfig)</text>
<text text-anchor="middle" x="581.69" y="-886.3" font-family="Arial" font-size="14.00">• 功能裁剪 (Kconfig)</text>
<text text-anchor="middle" x="581.69" y="-871.3" font-family="Arial" font-size="14.00">• 并行编译 (CMake)</text>
<text text-anchor="middle" x="581.69" y="-856.3" font-family="Arial" font-size="14.00">• 场景化配置 (defconfig)</text>
<text text-anchor="middle" x="581.69" y="-841.3" font-family="Arial" font-size="14.00">• 多产品支持</text>
</g>
</g>
</svg>
