<?xml version="1.0" encoding="UTF-8" standalone="no"?>
<!DOCTYPE svg PUBLIC "-//W3C//DTD SVG 1.1//EN"
 "http://www.w3.org/Graphics/SVG/1.1/DTD/svg11.dtd">
<!-- Generated by graphviz version 2.43.0 (0)
 -->
<!-- Title: OSAL_Internal Pages: 1 -->
<svg width="2742pt" height="466pt"
 viewBox="0.00 0.00 2742.00 466.00" xmlns="http://www.w3.org/2000/svg" xmlns:xlink="http://www.w3.org/1999/xlink">
<g id="graph0" class="graph" transform="scale(1 1) rotate(0) translate(4 462)">
<title>OSAL_Internal</title>
<polygon fill="white" stroke="transparent" points="-4,4 -4,-462 2738,-462 2738,4 -4,4"/>
<g id="clust1" class="cluster">
<title>cluster_ipc</title>
<polygon fill="#e1f5fe" stroke="black" points="8,-138 8,-245 928,-245 928,-138 8,-138"/>
<text text-anchor="middle" x="468" y="-229.8" font-family="Times,serif" font-size="14.00">IPC 模块 &#45; 进程间通信</text>
</g>
<g id="clust2" class="cluster">
<title>cluster_sys</title>
<polygon fill="#f3e5f5" stroke="black" points="936,-145.5 936,-237.5 1740,-237.5 1740,-145.5 936,-145.5"/>
<text text-anchor="middle" x="1338" y="-222.3" font-family="Times,serif" font-size="14.00">SYS 模块 &#45; 系统调用</text>
</g>
<g id="clust3" class="cluster">
<title>cluster_net</title>
<polygon fill="#fff3e0" stroke="black" points="1748,-145.5 1748,-237.5 2044,-237.5 2044,-145.5 1748,-145.5"/>
<text text-anchor="middle" x="1896" y="-222.3" font-family="Times,serif" font-size="14.00">NET 模块 &#45; 网络</text>
</g>
<g id="clust4" class="cluster">
<title>cluster_lib</title>
<polygon fill="#ffebee" stroke="black" points="2052,-145.5 2052,-237.5 2442,-237.5 2442,-145.5 2052,-145.5"/>
<text text-anchor="middle" x="2247" y="-222.3" font-family="Times,serif" font-size="14.00">LIB 模块 &#45; 标准库</text>
</g>
<g id="clust5" class="cluster">
<title>cluster_util</title>
<polygon fill="#e8f5e9" stroke="black" points="2450,-138 2450,-245 2726,-245 2726,-138 2450,-138"/>
<text text-anchor="middle" x="2588" y="-229.8" font-family="Times,serif" font-size="14.00">UTIL 模块 &#45; 工具类</text>
</g>
<!-- osal_api -->
<g id="node1" class="node">
<title>osal_api</title>
<polygon fill="#b2dfdb" stroke="black" points="1430,-374.5 1427,-378.5 1406,-378.5 1403,-374.5 1316,-374.5 1316,-336.5 1430,-336.5 1430,-374.5"/>
<text text-anchor="middle" x="1373" y="-359.3" font-family="Arial" font-size="14.00">OSAL 公共接口</text>
<text text-anchor="middle" x="1373" y="-344.3" font-family="Arial" font-size="14.00">osal.h</text>
</g>
<!-- task -->
<g id="node2" class="node">
<title>task</title>
<polygon fill="lightgrey" stroke="black" points="920,-214 756,-214 756,-146 920,-146 920,-214"/>
<text text-anchor="middle" x="838" y="-198.8" font-family="Arial" font-size="14.00">任务管理</text>
<text text-anchor="middle" x="838" y="-183.8" font-family="Arial" font-size="14.00">• TaskCreate/Delete</text>
<text text-anchor="middle" x="838" y="-168.8" font-family="Arial" font-size="14.00">• 优雅退出机制</text>
<text text-anchor="middle" x="838" y="-153.8" font-family="Arial" font-size="14.00">• TaskShouldShutdown()</text>
</g>
<!-- osal_api&#45;&gt;task -->
<g id="edge1" class="edge">
<title>osal_api&#45;&gt;task</title>
<path fill="none" stroke="black" d="M1315.9,-346.93C1229.75,-334.07 1062.7,-303.46 932,-245 916.93,-238.26 901.67,-229.09 887.95,-219.8"/>
<polygon fill="black" stroke="black" points="889.84,-216.85 879.63,-214.02 885.85,-222.6 889.84,-216.85"/>
</g>
<!-- queue -->
<g id="node3" class="node">
<title>queue</title>
<polygon fill="lightgrey" stroke="black" points="737.5,-214 624.5,-214 624.5,-146 737.5,-146 737.5,-214"/>
<text text-anchor="middle" x="681" y="-198.8" font-family="Arial" font-size="14.00">消息队列</text>
<text text-anchor="middle" x="681" y="-183.8" font-family="Arial" font-size="14.00">• 引用计数管理</text>
<text text-anchor="middle" x="681" y="-168.8" font-family="Arial" font-size="14.00">• 线程安全</text>
<text text-anchor="middle" x="681" y="-153.8" font-family="Arial" font-size="14.00">• QueueGet/Put</text>
</g>
<!-- osal_api&#45;&gt;queue -->
<g id="edge2" class="edge">
<title>osal_api&#45;&gt;queue</title>
<path fill="none" stroke="black" d="M1315.96,-355.46C1201.55,-355.11 938.66,-342.74 747,-245 735.44,-239.11 724.57,-230.5 715.12,-221.51"/>
<polygon fill="black" stroke="black" points="717.4,-218.84 707.85,-214.25 712.45,-223.8 717.4,-218.84"/>
</g>
<!-- mutex -->
<g id="node4" class="node">
<title>mutex</title>
<polygon fill="lightgrey" stroke="black" points="606.5,-206.5 469.5,-206.5 469.5,-153.5 606.5,-153.5 606.5,-206.5"/>
<text text-anchor="middle" x="538" y="-191.3" font-family="Arial" font-size="14.00">互斥锁</text>
<text text-anchor="middle" x="538" y="-176.3" font-family="Arial" font-size="14.00">• 死锁检测 (5秒)</text>
<text text-anchor="middle" x="538" y="-161.3" font-family="Arial" font-size="14.00">• MutexLock/Unlock</text>
</g>
<!-- osal_api&#45;&gt;mutex -->
<g id="edge3" class="edge">
<title>osal_api&#45;&gt;mutex</title>
<path fill="none" stroke="black" d="M1315.91,-350.23C1162.11,-338.1 742.21,-300.66 616,-245 598.99,-237.5 582.67,-225.21 569.4,-213.4"/>
<polygon fill="black" stroke="black" points="571.68,-210.74 561.95,-206.54 566.93,-215.89 571.68,-210.74"/>
</g>
<!-- sem -->
<g id="node5" class="node">
<title>sem</title>
<polygon fill="lightgrey" stroke="black" points="451.5,-206.5 336.5,-206.5 336.5,-153.5 451.5,-153.5 451.5,-206.5"/>
<text text-anchor="middle" x="394" y="-191.3" font-family="Arial" font-size="14.00">信号量</text>
<text text-anchor="middle" x="394" y="-176.3" font-family="Arial" font-size="14.00">• SemGive/Take</text>
<text text-anchor="middle" x="394" y="-161.3" font-family="Arial" font-size="14.00">• 超时控制</text>
</g>
<!-- osal_api&#45;&gt;sem -->
<g id="edge4" class="edge">
<title>osal_api&#45;&gt;sem</title>
<path fill="none" stroke="black" d="M1315.92,-352.34C1140.85,-344.99 614.14,-317.28 461,-245 445.85,-237.85 431.93,-225.92 420.75,-214.28"/>
<polygon fill="black" stroke="black" points="423.16,-211.73 413.82,-206.73 418.01,-216.46 423.16,-211.73"/>
</g>
<!-- cond -->
<g id="node6" class="node">
<title>cond</title>
<polygon fill="lightgrey" stroke="black" points="318,-199 192,-199 192,-161 318,-161 318,-199"/>
<text text-anchor="middle" x="255" y="-183.8" font-family="Arial" font-size="14.00">条件变量</text>
<text text-anchor="middle" x="255" y="-168.8" font-family="Arial" font-size="14.00">• CondWait/Signal</text>
</g>
<!-- osal_api&#45;&gt;cond -->
<g id="edge5" class="edge">
<title>osal_api&#45;&gt;cond</title>
<path fill="none" stroke="black" d="M1315.67,-353.04C1124.06,-347.45 507.89,-323.64 328,-245 308.19,-236.34 289.91,-220.3 276.6,-206.44"/>
<polygon fill="black" stroke="black" points="279.09,-203.98 269.73,-199.02 273.96,-208.74 279.09,-203.98"/>
</g>
<!-- atomic -->
<g id="node7" class="node">
<title>atomic</title>
<polygon fill="lightgrey" stroke="black" points="173.5,-206.5 16.5,-206.5 16.5,-153.5 173.5,-153.5 173.5,-206.5"/>
<text text-anchor="middle" x="95" y="-191.3" font-family="Arial" font-size="14.00">原子操作</text>
<text text-anchor="middle" x="95" y="-176.3" font-family="Arial" font-size="14.00">• AtomicAdd/Sub</text>
<text text-anchor="middle" x="95" y="-161.3" font-family="Arial" font-size="14.00">• AtomicCompareSwap</text>
</g>
<!-- osal_api&#45;&gt;atomic -->
<g id="edge6" class="edge">
<title>osal_api&#45;&gt;atomic</title>
<path fill="none" stroke="black" d="M1315.76,-353.24C1107.95,-348.05 394.5,-324.68 183,-245 163.91,-237.81 145.26,-225.29 130.08,-213.23"/>
<polygon fill="black" stroke="black" points="131.98,-210.25 122.03,-206.61 127.53,-215.66 131.98,-210.25"/>
</g>
<!-- file -->
<g id="node8" class="node">
<title>file</title>
<polygon fill="lightgrey" stroke="black" points="1732,-206.5 1578,-206.5 1578,-153.5 1732,-153.5 1732,-206.5"/>
<text text-anchor="middle" x="1655" y="-191.3" font-family="Arial" font-size="14.00">文件操作</text>
<text text-anchor="middle" x="1655" y="-176.3" font-family="Arial" font-size="14.00">• open/close/read/write</text>
<text text-anchor="middle" x="1655" y="-161.3" font-family="Arial" font-size="14.00">• lseek/stat</text>
</g>
<!-- osal_api&#45;&gt;file -->
<g id="edge7" class="edge">
<title>osal_api&#45;&gt;file</title>
<path fill="none" stroke="black" d="M1379.12,-336.41C1388.23,-312.61 1407.84,-271.61 1440,-253 1464.86,-238.61 1542.03,-254.87 1569,-245 1588.02,-238.04 1606.42,-225.43 1621.28,-213.23"/>
<polygon fill="black" stroke="black" points="1623.8,-215.68 1629.15,-206.53 1619.26,-210.34 1623.8,-215.68"/>
</g>
<!-- clock -->
<g id="node9" class="node">
<title>clock</title>
<polygon fill="lightgrey" stroke="black" points="1559.5,-206.5 1450.5,-206.5 1450.5,-153.5 1559.5,-153.5 1559.5,-206.5"/>
<text text-anchor="middle" x="1505" y="-191.3" font-family="Arial" font-size="14.00">时钟</text>
<text text-anchor="middle" x="1505" y="-176.3" font-family="Arial" font-size="14.00">• clock_gettime</text>
<text text-anchor="middle" x="1505" y="-161.3" font-family="Arial" font-size="14.00">• nanosleep</text>
</g>
<!-- osal_api&#45;&gt;clock -->
<g id="edge8" class="edge">
<title>osal_api&#45;&gt;clock</title>
<path fill="none" stroke="black" d="M1383.84,-336.34C1396.48,-315.58 1418.41,-280.88 1440,-253 1450.23,-239.78 1462.3,-225.99 1473.25,-214.06"/>
<polygon fill="black" stroke="black" points="1476.01,-216.22 1480.24,-206.51 1470.88,-211.46 1476.01,-216.22"/>
</g>
<!-- signal -->
<g id="node10" class="node">
<title>signal</title>
<polygon fill="lightgrey" stroke="black" points="1432,-199 1314,-199 1314,-161 1432,-161 1432,-199"/>
<text text-anchor="middle" x="1373" y="-183.8" font-family="Arial" font-size="14.00">信号处理</text>
<text text-anchor="middle" x="1373" y="-168.8" font-family="Arial" font-size="14.00">• signal/sigaction</text>
</g>
<!-- osal_api&#45;&gt;signal -->
<g id="edge9" class="edge">
<title>osal_api&#45;&gt;signal</title>
<path fill="none" stroke="black" d="M1373,-336.26C1373,-306.06 1373,-245.45 1373,-209.55"/>
<polygon fill="black" stroke="black" points="1376.5,-209.26 1373,-199.26 1369.5,-209.26 1376.5,-209.26"/>
</g>
<!-- select -->
<g id="node11" class="node">
<title>select</title>
<polygon fill="lightgrey" stroke="black" points="1296,-199 1200,-199 1200,-161 1296,-161 1296,-199"/>
<text text-anchor="middle" x="1248" y="-183.8" font-family="Arial" font-size="14.00">I/O 多路复用</text>
<text text-anchor="middle" x="1248" y="-168.8" font-family="Arial" font-size="14.00">• select/poll</text>
</g>
<!-- osal_api&#45;&gt;select -->
<g id="edge10" class="edge">
<title>osal_api&#45;&gt;select</title>
<path fill="none" stroke="black" d="M1359.86,-336.26C1337.73,-305.54 1292.92,-243.36 1267.24,-207.71"/>
<polygon fill="black" stroke="black" points="1269.84,-205.32 1261.15,-199.26 1264.16,-209.42 1269.84,-205.32"/>
</g>
<!-- env -->
<g id="node12" class="node">
<title>env</title>
<polygon fill="lightgrey" stroke="black" points="1182,-199 1072,-199 1072,-161 1182,-161 1182,-199"/>
<text text-anchor="middle" x="1127" y="-183.8" font-family="Arial" font-size="14.00">环境变量</text>
<text text-anchor="middle" x="1127" y="-168.8" font-family="Arial" font-size="14.00">• getenv/setenv</text>
</g>
<!-- osal_api&#45;&gt;env -->
<g id="edge11" class="edge">
<title>osal_api&#45;&gt;env</title>
<path fill="none" stroke="black" d="M1337.49,-336.49C1299.56,-316.5 1238.5,-282.13 1191,-245 1176.24,-233.46 1161.34,-218.78 1149.64,-206.4"/>
<polygon fill="black" stroke="black" points="1152.17,-203.97 1142.79,-199.03 1147.04,-208.74 1152.17,-203.97"/>
</g>
<!-- time -->
<g id="node13" class="node">
<title>time</title>
<polygon fill="lightgrey" stroke="black" points="1054,-199 944,-199 944,-161 1054,-161 1054,-199"/>
<text text-anchor="middle" x="999" y="-183.8" font-family="Arial" font-size="14.00">时间操作</text>
<text text-anchor="middle" x="999" y="-168.8" font-family="Arial" font-size="14.00">• time/localtime</text>
</g>
<!-- osal_api&#45;&gt;time -->
<g id="edge12" class="edge">
<title>osal_api&#45;&gt;time</title>
<path fill="none" stroke="black" d="M1315.89,-342.43C1250.99,-326.94 1143.64,-295.83 1063,-245 1046.82,-234.8 1031.55,-219.83 1019.99,-206.93"/>
<polygon fill="black" stroke="black" points="1022.5,-204.48 1013.3,-199.23 1017.22,-209.07 1022.5,-204.48"/>
</g>
<!-- socket -->
<g id="node14" class="node">
<title>socket</title>
<polygon fill="lightgrey" stroke="black" points="2035.5,-206.5 1900.5,-206.5 1900.5,-153.5 2035.5,-153.5 2035.5,-206.5"/>
<text text-anchor="middle" x="1968" y="-191.3" font-family="Arial" font-size="14.00">Socket</text>
<text text-anchor="middle" x="1968" y="-176.3" font-family="Arial" font-size="14.00">• socket/bind/listen</text>
<text text-anchor="middle" x="1968" y="-161.3" font-family="Arial" font-size="14.00">• connect/send/recv</text>
</g>
<!-- osal_api&#45;&gt;socket -->
<g id="edge13" class="edge">
<title>osal_api&#45;&gt;socket</title>
<path fill="none" stroke="black" d="M1379,-336.2C1387.98,-312.16 1407.43,-270.9 1440,-253 1461.96,-240.93 1867.51,-253.72 1891,-245 1908.71,-238.42 1925.26,-225.9 1938.44,-213.66"/>
<polygon fill="black" stroke="black" points="1941.05,-216 1945.8,-206.53 1936.18,-210.98 1941.05,-216"/>
</g>
<!-- termios -->
<g id="node15" class="node">
<title>termios</title>
<polygon fill="lightgrey" stroke="black" points="1882,-199 1756,-199 1756,-161 1882,-161 1882,-199"/>
<text text-anchor="middle" x="1819" y="-183.8" font-family="Arial" font-size="14.00">串口控制</text>
<text text-anchor="middle" x="1819" y="-168.8" font-family="Arial" font-size="14.00">• tcgetattr/tcsetattr</text>
</g>
<!-- osal_api&#45;&gt;termios -->
<g id="edge14" class="edge">
<title>osal_api&#45;&gt;termios</title>
<path fill="none" stroke="black" d="M1379.02,-336.24C1388.03,-312.25 1407.51,-271.04 1440,-253 1469.54,-236.6 1712.45,-257.1 1744,-245 1764.63,-237.08 1783.53,-220.88 1797.19,-206.75"/>
<polygon fill="black" stroke="black" points="1799.98,-208.9 1804.22,-199.19 1794.85,-204.13 1799.98,-208.9"/>
</g>
<!-- string -->
<g id="node16" class="node">
<title>string</title>
<polygon fill="lightgrey" stroke="black" points="2433.5,-206.5 2302.5,-206.5 2302.5,-153.5 2433.5,-153.5 2433.5,-206.5"/>
<text text-anchor="middle" x="2368" y="-191.3" font-family="Arial" font-size="14.00">字符串</text>
<text text-anchor="middle" x="2368" y="-176.3" font-family="Arial" font-size="14.00">• memcpy/memset</text>
<text text-anchor="middle" x="2368" y="-161.3" font-family="Arial" font-size="14.00">• strlen/strcmp</text>
</g>
<!-- osal_api&#45;&gt;string -->
<g id="edge15" class="edge">
<title>osal_api&#45;&gt;string</title>
<path fill="none" stroke="black" d="M1378.98,-336.16C1387.93,-312.08 1407.36,-270.76 1440,-253 1460.81,-241.67 2270.81,-253.3 2293,-245 2310.42,-238.48 2326.57,-225.97 2339.38,-213.72"/>
<polygon fill="black" stroke="black" points="2341.92,-216.13 2346.53,-206.58 2336.98,-211.17 2341.92,-216.13"/>
</g>
<!-- heap -->
<g id="node17" class="node">
<title>heap</title>
<polygon fill="lightgrey" stroke="black" points="2284,-206.5 2180,-206.5 2180,-153.5 2284,-153.5 2284,-206.5"/>
<text text-anchor="middle" x="2232" y="-191.3" font-family="Arial" font-size="14.00">堆内存</text>
<text text-anchor="middle" x="2232" y="-176.3" font-family="Arial" font-size="14.00">• malloc/free</text>
<text text-anchor="middle" x="2232" y="-161.3" font-family="Arial" font-size="14.00">• calloc/realloc</text>
</g>
<!-- osal_api&#45;&gt;heap -->
<g id="edge16" class="edge">
<title>osal_api&#45;&gt;heap</title>
<path fill="none" stroke="black" d="M1378.98,-336.17C1387.94,-312.09 1407.37,-270.79 1440,-253 1475.66,-233.56 2133.76,-261.2 2171,-245 2185.75,-238.58 2198.65,-226.69 2208.74,-214.89"/>
<polygon fill="black" stroke="black" points="2211.71,-216.78 2215.26,-206.8 2206.26,-212.38 2211.71,-216.78"/>
</g>
<!-- error -->
<g id="node18" class="node">
<title>error</title>
<polygon fill="lightgrey" stroke="black" points="2161.5,-206.5 2060.5,-206.5 2060.5,-153.5 2161.5,-153.5 2161.5,-206.5"/>
<text text-anchor="middle" x="2111" y="-191.3" font-family="Arial" font-size="14.00">错误处理</text>
<text text-anchor="middle" x="2111" y="-176.3" font-family="Arial" font-size="14.00">• 37 个错误码</text>
<text text-anchor="middle" x="2111" y="-161.3" font-family="Arial" font-size="14.00">• errno 映射</text>
</g>
<!-- osal_api&#45;&gt;error -->
<g id="edge17" class="edge">
<title>osal_api&#45;&gt;error</title>
<path fill="none" stroke="black" d="M1378.99,-336.18C1387.95,-312.11 1407.39,-270.82 1440,-253 1469.64,-236.8 2016.93,-258.25 2048,-245 2063.18,-238.53 2076.57,-226.47 2087.06,-214.55"/>
<polygon fill="black" stroke="black" points="2089.81,-216.72 2093.53,-206.8 2084.44,-212.24 2089.81,-216.72"/>
</g>
<!-- log -->
<g id="node19" class="node">
<title>log</title>
<polygon fill="lightgrey" stroke="black" points="2717.5,-214 2586.5,-214 2586.5,-146 2717.5,-146 2717.5,-214"/>
<text text-anchor="middle" x="2652" y="-198.8" font-family="Arial" font-size="14.00">日志系统</text>
<text text-anchor="middle" x="2652" y="-183.8" font-family="Arial" font-size="14.00">• 5 级日志</text>
<text text-anchor="middle" x="2652" y="-168.8" font-family="Arial" font-size="14.00">• 自动轮转 (10MB)</text>
<text text-anchor="middle" x="2652" y="-153.8" font-family="Arial" font-size="14.00">• 线程安全</text>
</g>
<!-- osal_api&#45;&gt;log -->
<g id="edge18" class="edge">
<title>osal_api&#45;&gt;log</title>
<path fill="none" stroke="black" d="M1378.97,-336.15C1387.92,-312.05 1407.34,-270.72 1440,-253 1467.76,-237.94 2547.4,-256.03 2577,-245 2590.94,-239.8 2604.07,-230.76 2615.32,-221.07"/>
<polygon fill="black" stroke="black" points="2617.73,-223.61 2622.8,-214.3 2613.03,-218.42 2617.73,-223.61"/>
</g>
<!-- version -->
<g id="node20" class="node">
<title>version</title>
<polygon fill="lightgrey" stroke="black" points="2568,-206.5 2458,-206.5 2458,-153.5 2568,-153.5 2568,-206.5"/>
<text text-anchor="middle" x="2513" y="-191.3" font-family="Arial" font-size="14.00">版本信息</text>
<text text-anchor="middle" x="2513" y="-176.3" font-family="Arial" font-size="14.00">• GetVersion()</text>
<text text-anchor="middle" x="2513" y="-161.3" font-family="Arial" font-size="14.00">• GetBuildInfo()</text>
</g>
<!-- osal_api&#45;&gt;version -->
<g id="edge19" class="edge">
<title>osal_api&#45;&gt;version</title>
<path fill="none" stroke="black" d="M1378.97,-336.16C1387.92,-312.06 1407.35,-270.74 1440,-253 1464.56,-239.66 2420.1,-255.5 2446,-245 2461.9,-238.55 2476.18,-226.37 2487.43,-214.35"/>
<polygon fill="black" stroke="black" points="2490.34,-216.34 2494.37,-206.54 2485.11,-211.69 2490.34,-216.34"/>
</g>
<!-- posix -->
<g id="node21" class="node">
<title>posix</title>
<polygon fill="#eceff1" stroke="black" points="1425.5,-110 1422.5,-114 1401.5,-114 1398.5,-110 1320.5,-110 1320.5,-72 1425.5,-72 1425.5,-110"/>
<text text-anchor="middle" x="1373" y="-94.8" font-family="Arial" font-size="14.00">POSIX 实现层</text>
<text text-anchor="middle" x="1373" y="-79.8" font-family="Arial" font-size="14.00">src/posix/</text>
</g>
<!-- task&#45;&gt;posix -->
<g id="edge20" class="edge">
<title>task&#45;&gt;posix</title>
<path fill="none" stroke="black" d="M907.22,-146C915.44,-142.92 923.82,-140.15 932,-138 1063.62,-103.32 1223.79,-94.6 1310.3,-92.53"/>
<polygon fill="black" stroke="black" points="1310.55,-96.02 1320.47,-92.31 1310.4,-89.02 1310.55,-96.02"/>
</g>
<!-- queue&#45;&gt;posix -->
<g id="edge21" class="edge">
<title>queue&#45;&gt;posix</title>
<path fill="none" stroke="black" d="M728.34,-145.94C734.42,-142.81 740.71,-140.05 747,-138 850.27,-104.4 1172.18,-95.23 1309.69,-92.82"/>
<polygon fill="black" stroke="black" points="1310.11,-96.32 1320.05,-92.65 1310,-89.32 1310.11,-96.32"/>
</g>
<!-- mutex&#45;&gt;posix -->
<g id="edge22" class="edge">
<title>mutex&#45;&gt;posix</title>
<path fill="none" stroke="black" d="M578.74,-153.45C590.37,-147.33 603.33,-141.54 616,-138 745.85,-101.74 1152.4,-94.05 1309.84,-92.43"/>
<polygon fill="black" stroke="black" points="1310.33,-95.93 1320.29,-92.33 1310.26,-88.93 1310.33,-95.93"/>
</g>
<!-- sem&#45;&gt;posix -->
<g id="edge23" class="edge">
<title>sem&#45;&gt;posix</title>
<path fill="none" stroke="black" d="M428.57,-153.35C438.56,-147.23 449.8,-141.46 461,-138 541.5,-113.12 1117.22,-97.84 1310.16,-93.37"/>
<polygon fill="black" stroke="black" points="1310.5,-96.87 1320.42,-93.14 1310.34,-89.87 1310.5,-96.87"/>
</g>
<!-- cond&#45;&gt;posix -->
<g id="edge24" class="edge">
<title>cond&#45;&gt;posix</title>
<path fill="none" stroke="black" d="M280.38,-160.84C293.85,-152.25 311.09,-142.82 328,-138 422.13,-111.15 1098.97,-96.9 1310.2,-93.07"/>
<polygon fill="black" stroke="black" points="1310.56,-96.56 1320.49,-92.88 1310.43,-89.56 1310.56,-96.56"/>
</g>
<!-- atomic&#45;&gt;posix -->
<g id="edge25" class="edge">
<title>atomic&#45;&gt;posix</title>
<path fill="none" stroke="black" d="M140.78,-153.49C154.02,-147.29 168.75,-141.45 183,-138 292.66,-111.48 1080.4,-96.74 1310.22,-92.97"/>
<polygon fill="black" stroke="black" points="1310.47,-96.47 1320.42,-92.81 1310.36,-89.47 1310.47,-96.47"/>
</g>
<!-- file&#45;&gt;posix -->
<g id="edge26" class="edge">
<title>file&#45;&gt;posix</title>
<path fill="none" stroke="black" d="M1605.74,-153.3C1593.91,-147.75 1581.17,-142.27 1569,-138 1525.56,-122.75 1474.93,-111.01 1436.01,-103.21"/>
<polygon fill="black" stroke="black" points="1436.36,-99.71 1425.87,-101.22 1435,-106.58 1436.36,-99.71"/>
</g>
<!-- clock&#45;&gt;posix -->
<g id="edge27" class="edge">
<title>clock&#45;&gt;posix</title>
<path fill="none" stroke="black" d="M1466.11,-153.37C1447.94,-141.39 1426.46,-127.23 1408.7,-115.53"/>
<polygon fill="black" stroke="black" points="1410.6,-112.59 1400.32,-110.01 1406.74,-118.43 1410.6,-112.59"/>
</g>
<!-- signal&#45;&gt;posix -->
<g id="edge28" class="edge">
<title>signal&#45;&gt;posix</title>
<path fill="none" stroke="black" d="M1373,-160.97C1373,-149.19 1373,-133.56 1373,-120.16"/>
<polygon fill="black" stroke="black" points="1376.5,-120 1373,-110 1369.5,-120 1376.5,-120"/>
</g>
<!-- select&#45;&gt;posix -->
<g id="edge29" class="edge">
<title>select&#45;&gt;posix</title>
<path fill="none" stroke="black" d="M1272.86,-160.88C1282.81,-153.69 1294.4,-145.39 1305,-138 1315.41,-130.74 1326.81,-122.96 1337.25,-115.91"/>
<polygon fill="black" stroke="black" points="1339.41,-118.67 1345.74,-110.18 1335.5,-112.86 1339.41,-118.67"/>
</g>
<!-- env&#45;&gt;posix -->
<g id="edge30" class="edge">
<title>env&#45;&gt;posix</title>
<path fill="none" stroke="black" d="M1151.19,-160.88C1162.75,-152.92 1177.07,-144.03 1191,-138 1229.14,-121.49 1274.43,-110.01 1310.3,-102.65"/>
<polygon fill="black" stroke="black" points="1311.03,-106.07 1320.15,-100.68 1309.66,-99.21 1311.03,-106.07"/>
</g>
<!-- time&#45;&gt;posix -->
<g id="edge31" class="edge">
<title>time&#45;&gt;posix</title>
<path fill="none" stroke="black" d="M1022.03,-160.87C1033.68,-152.6 1048.42,-143.46 1063,-138 1144.8,-107.35 1245.94,-97.05 1309.98,-93.63"/>
<polygon fill="black" stroke="black" points="1310.5,-97.11 1320.32,-93.12 1310.16,-90.12 1310.5,-97.11"/>
</g>
<!-- socket&#45;&gt;posix -->
<g id="edge32" class="edge">
<title>socket&#45;&gt;posix</title>
<path fill="none" stroke="black" d="M1927.35,-153.47C1915.97,-147.42 1903.34,-141.67 1891,-138 1807.33,-113.13 1554.53,-99.59 1435.83,-94.45"/>
<polygon fill="black" stroke="black" points="1435.94,-90.95 1425.8,-94.02 1435.64,-97.94 1435.94,-90.95"/>
</g>
<!-- termios&#45;&gt;posix -->
<g id="edge33" class="edge">
<title>termios&#45;&gt;posix</title>
<path fill="none" stroke="black" d="M1791.99,-161C1778.2,-152.66 1760.81,-143.42 1744,-138 1639.43,-104.29 1510.92,-95.05 1435.87,-92.66"/>
<polygon fill="black" stroke="black" points="1435.74,-89.15 1425.64,-92.36 1435.53,-96.15 1435.74,-89.15"/>
</g>
<!-- string&#45;&gt;posix -->
<g id="edge34" class="edge">
<title>string&#45;&gt;posix</title>
<path fill="none" stroke="black" d="M2328.95,-153.36C2317.78,-147.23 2305.28,-141.47 2293,-138 2131.36,-92.37 1615.61,-90.65 1435.66,-91.5"/>
<polygon fill="black" stroke="black" points="1435.55,-88 1425.57,-91.56 1435.59,-95 1435.55,-88"/>
</g>
<!-- heap&#45;&gt;posix -->
<g id="edge35" class="edge">
<title>heap&#45;&gt;posix</title>
<path fill="none" stroke="black" d="M2200.79,-153.4C2191.7,-147.28 2181.4,-141.5 2171,-138 2035.31,-92.33 1599.91,-90.4 1436.11,-91.37"/>
<polygon fill="black" stroke="black" points="1435.69,-87.87 1425.72,-91.43 1435.74,-94.87 1435.69,-87.87"/>
</g>
<!-- error&#45;&gt;posix -->
<g id="edge36" class="edge">
<title>error&#45;&gt;posix</title>
<path fill="none" stroke="black" d="M2078.63,-153.48C2069.25,-147.35 2058.64,-141.56 2048,-138 1935.54,-100.42 1580.6,-93.5 1435.62,-92.26"/>
<polygon fill="black" stroke="black" points="1435.58,-88.76 1425.55,-92.18 1435.52,-95.76 1435.58,-88.76"/>
</g>
<!-- log&#45;&gt;posix -->
<g id="edge37" class="edge">
<title>log&#45;&gt;posix</title>
<path fill="none" stroke="black" d="M2598.36,-145.91C2591.37,-142.74 2584.15,-139.97 2577,-138 2466.84,-107.6 1667.51,-95.58 1435.79,-92.71"/>
<polygon fill="black" stroke="black" points="1435.56,-89.21 1425.52,-92.59 1435.47,-96.21 1435.56,-89.21"/>
</g>
<!-- version&#45;&gt;posix -->
<g id="edge38" class="edge">
<title>version&#45;&gt;posix</title>
<path fill="none" stroke="black" d="M2478.44,-153.3C2468.46,-147.17 2457.22,-141.42 2446,-138 2349.6,-108.6 1650.67,-96.05 1435.72,-92.86"/>
<polygon fill="black" stroke="black" points="1435.61,-89.36 1425.56,-92.71 1435.5,-96.36 1435.61,-89.36"/>
</g>
<!-- kernel -->
<g id="node22" class="node">
<title>kernel</title>
<path fill="#cfd8dc" stroke="black" d="M1457.5,-32.73C1457.5,-34.53 1419.63,-36 1373,-36 1326.37,-36 1288.5,-34.53 1288.5,-32.73 1288.5,-32.73 1288.5,-3.27 1288.5,-3.27 1288.5,-1.47 1326.37,0 1373,0 1419.63,0 1457.5,-1.47 1457.5,-3.27 1457.5,-3.27 1457.5,-32.73 1457.5,-32.73"/>
<path fill="none" stroke="black" d="M1457.5,-32.73C1457.5,-30.92 1419.63,-29.45 1373,-29.45 1326.37,-29.45 1288.5,-30.92 1288.5,-32.73"/>
<text text-anchor="middle" x="1373" y="-14.3" font-family="Arial" font-size="14.00">Linux Kernel / POSIX OS</text>
</g>
<!-- posix&#45;&gt;kernel -->
<g id="edge39" class="edge">
<title>posix&#45;&gt;kernel</title>
<path fill="none" stroke="black" d="M1373,-71.72C1373,-63.97 1373,-54.79 1373,-46.27"/>
<polygon fill="black" stroke="black" points="1376.5,-46 1373,-36 1369.5,-46 1376.5,-46"/>
</g>
<!-- features -->
<g id="node23" class="node">
<title>features</title>
<polygon fill="#fffde7" stroke="black" points="1683.5,-458 1448.5,-458 1448.5,-253 1689.5,-253 1689.5,-452 1683.5,-458"/>
<polyline fill="none" stroke="black" points="1683.5,-458 1683.5,-452 "/>
<polyline fill="none" stroke="black" points="1689.5,-452 1683.5,-452 "/>
<text text-anchor="middle" x="1569" y="-442.8" font-family="Arial" font-size="14.00">OSAL 关键特性：</text>
<text text-anchor="middle" x="1569" y="-411.8" font-family="Arial" font-size="14.00">• 零初始化：静态初始化，无需 Init()</text>
<text text-anchor="middle" x="1569" y="-396.8" font-family="Arial" font-size="14.00">• 优雅退出：避免 pthread_cancel</text>
<text text-anchor="middle" x="1569" y="-381.8" font-family="Arial" font-size="14.00">• 引用计数：防止 use&#45;after&#45;free</text>
<text text-anchor="middle" x="1569" y="-366.8" font-family="Arial" font-size="14.00">• 死锁检测：互斥锁 5 秒超时</text>
<text text-anchor="middle" x="1569" y="-351.8" font-family="Arial" font-size="14.00">• 日志轮转：10MB/5 个备份</text>
<text text-anchor="middle" x="1569" y="-336.8" font-family="Arial" font-size="14.00">• 线程安全：所有接口线程安全</text>
<text text-anchor="middle" x="1569" y="-305.8" font-family="Arial" font-size="14.00">资源限制：</text>
<text text-anchor="middle" x="1569" y="-290.8" font-family="Arial" font-size="14.00">• 最大任务数：64</text>
<text text-anchor="middle" x="1569" y="-275.8" font-family="Arial" font-size="14.00">• 最大队列数：64</text>
<text text-anchor="middle" x="1569" y="-260.8" font-family="Arial" font-size="14.00">• 最大互斥锁：64</text>
</g>
</g>
</svg>
