<?xml version="1.0" encoding="UTF-8" standalone="no"?>
<!DOCTYPE svg PUBLIC "-//W3C//DTD SVG 1.1//EN"
 "http://www.w3.org/Graphics/SVG/1.1/DTD/svg11.dtd">
<!-- Generated by graphviz version 2.43.0 (0)
 -->
<!-- Title: AConfig_Mapping Pages: 1 -->
<svg width="1263pt" height="1168pt"
 viewBox="0.00 0.00 1263.00 1168.00" xmlns="http://www.w3.org/2000/svg" xmlns:xlink="http://www.w3.org/1999/xlink">
<g id="graph0" class="graph" transform="scale(1 1) rotate(0) translate(4 1164)">
<title>AConfig_Mapping</title>
<polygon fill="white" stroke="transparent" points="-4,4 -4,-1164 1259,-1164 1259,4 -4,4"/>
<g id="clust1" class="cluster">
<title>cluster_functions</title>
<polygon fill="#e8f5e9" stroke="black" points="62,-109 62,-362 297,-362 297,-109 62,-109"/>
<text text-anchor="middle" x="179.5" y="-346.8" font-family="Times,serif" font-size="14.00">业务功能 (枚举)</text>
</g>
<g id="clust2" class="cluster">
<title>cluster_aconfig</title>
<polygon fill="#fff3e0" stroke="black" points="534,-90 534,-374 903,-374 903,-90 534,-90"/>
<text text-anchor="middle" x="718.5" y="-358.8" font-family="Times,serif" font-size="14.00">AConfig 查找表 (O(1))</text>
</g>
<g id="clust3" class="cluster">
<title>cluster_devices</title>
<polygon fill="#e3f2fd" stroke="black" points="1108,-8 1108,-314 1247,-314 1247,-8 1108,-8"/>
<text text-anchor="middle" x="1177.5" y="-298.8" font-family="Times,serif" font-size="14.00">硬件设备</text>
</g>
<!-- tc_funcs -->
<g id="node1" class="node">
<title>tc_funcs</title>
<polygon fill="#c8e6c9" stroke="black" points="276,-331 83,-331 83,-233 276,-233 276,-331"/>
<text text-anchor="middle" x="179.5" y="-315.8" font-family="Arial" font-size="14.00">遥控功能</text>
<text text-anchor="middle" x="179.5" y="-300.8" font-family="Arial" font-size="14.00">TC_SERVER_POWER_ON</text>
<text text-anchor="middle" x="179.5" y="-285.8" font-family="Arial" font-size="14.00">TC_SERVER_POWER_OFF</text>
<text text-anchor="middle" x="179.5" y="-270.8" font-family="Arial" font-size="14.00">TC_MCU_RESET</text>
<text text-anchor="middle" x="179.5" y="-255.8" font-family="Arial" font-size="14.00">TC_WATCHDOG_FEED</text>
<text text-anchor="middle" x="179.5" y="-240.8" font-family="Arial" font-size="14.00">...</text>
</g>
<!-- tc_table -->
<g id="node3" class="node">
<title>tc_table</title>
<polygon fill="#ffe082" stroke="black" points="854.5,-342.5 582.5,-342.5 582.5,-229.5 854.5,-229.5 854.5,-342.5"/>
<text text-anchor="middle" x="718.5" y="-327.3" font-family="Arial" font-size="14.00">TC 配置表</text>
<text text-anchor="middle" x="718.5" y="-312.3" font-family="Arial" font-size="14.00">[</text>
<text text-anchor="middle" x="718.5" y="-297.3" font-family="Arial" font-size="14.00"> &#160;TC_SERVER_POWER_ON → BMC[0],</text>
<text text-anchor="middle" x="718.5" y="-282.3" font-family="Arial" font-size="14.00"> &#160;TC_SERVER_POWER_OFF → BMC[0],</text>
<text text-anchor="middle" x="718.5" y="-267.3" font-family="Arial" font-size="14.00"> &#160;TC_MCU_RESET → MCU[0],</text>
<text text-anchor="middle" x="718.5" y="-252.3" font-family="Arial" font-size="14.00"> &#160;...</text>
<text text-anchor="middle" x="718.5" y="-237.3" font-family="Arial" font-size="14.00">]</text>
</g>
<!-- tc_funcs&#45;&gt;tc_table -->
<g id="edge1" class="edge">
<title>tc_funcs&#45;&gt;tc_table</title>
<path fill="none" stroke="black" d="M276.2,-282.71C358.38,-283.33 478.13,-284.22 572.16,-284.92"/>
<polygon fill="black" stroke="black" points="572.31,-288.42 582.33,-284.99 572.36,-281.42 572.31,-288.42"/>
<text text-anchor="middle" x="450.5" y="-287.8" font-family="Times,serif" font-size="14.00">1. 枚举值作为数组索引</text>
</g>
<!-- tm_funcs -->
<g id="node2" class="node">
<title>tm_funcs</title>
<polygon fill="#c8e6c9" stroke="black" points="289,-215 70,-215 70,-117 289,-117 289,-215"/>
<text text-anchor="middle" x="179.5" y="-199.8" font-family="Arial" font-size="14.00">遥测功能</text>
<text text-anchor="middle" x="179.5" y="-184.8" font-family="Arial" font-size="14.00">TM_SERVER_CPU_TEMP</text>
<text text-anchor="middle" x="179.5" y="-169.8" font-family="Arial" font-size="14.00">TM_SERVER_POWER_STATUS</text>
<text text-anchor="middle" x="179.5" y="-154.8" font-family="Arial" font-size="14.00">TM_MCU_STATUS</text>
<text text-anchor="middle" x="179.5" y="-139.8" font-family="Arial" font-size="14.00">TM_DISK_USAGE</text>
<text text-anchor="middle" x="179.5" y="-124.8" font-family="Arial" font-size="14.00">...</text>
</g>
<!-- tm_table -->
<g id="node4" class="node">
<title>tm_table</title>
<polygon fill="#ffe082" stroke="black" points="895,-211.5 542,-211.5 542,-98.5 895,-98.5 895,-211.5"/>
<text text-anchor="middle" x="718.5" y="-196.3" font-family="Arial" font-size="14.00">TM 配置表</text>
<text text-anchor="middle" x="718.5" y="-181.3" font-family="Arial" font-size="14.00">[</text>
<text text-anchor="middle" x="718.5" y="-166.3" font-family="Arial" font-size="14.00"> &#160;TM_SERVER_CPU_TEMP → BMC[0] (缓存型),</text>
<text text-anchor="middle" x="718.5" y="-151.3" font-family="Arial" font-size="14.00"> &#160;TM_SERVER_POWER_STATUS → BMC[0] (实时型),</text>
<text text-anchor="middle" x="718.5" y="-136.3" font-family="Arial" font-size="14.00"> &#160;TM_MCU_STATUS → MCU[0] (缓存型),</text>
<text text-anchor="middle" x="718.5" y="-121.3" font-family="Arial" font-size="14.00"> &#160;...</text>
<text text-anchor="middle" x="718.5" y="-106.3" font-family="Arial" font-size="14.00">]</text>
</g>
<!-- tm_funcs&#45;&gt;tm_table -->
<g id="edge2" class="edge">
<title>tm_funcs&#45;&gt;tm_table</title>
<path fill="none" stroke="black" d="M289.17,-163.77C358.68,-162.35 450.65,-160.47 531.55,-158.81"/>
<polygon fill="black" stroke="black" points="531.94,-162.3 541.87,-158.6 531.8,-155.3 531.94,-162.3"/>
<text text-anchor="middle" x="450.5" y="-164.8" font-family="Times,serif" font-size="14.00">1. 枚举值作为数组索引</text>
</g>
<!-- bmc -->
<g id="node5" class="node">
<title>bmc</title>
<polygon fill="#90caf9" stroke="black" points="1239,-282.5 1116,-282.5 1116,-229.5 1239,-229.5 1239,-282.5"/>
<text text-anchor="middle" x="1177.5" y="-267.3" font-family="Arial" font-size="14.00">BMC[0]</text>
<text text-anchor="middle" x="1177.5" y="-252.3" font-family="Arial" font-size="14.00">基板管理控制器</text>
<text text-anchor="middle" x="1177.5" y="-237.3" font-family="Arial" font-size="14.00">IP: 192.168.1.100</text>
</g>
<!-- tc_table&#45;&gt;bmc -->
<g id="edge3" class="edge">
<title>tc_table&#45;&gt;bmc</title>
<path fill="none" stroke="black" d="M854.89,-278.7C927.09,-274.58 1017.42,-269.04 1098,-263 1100.51,-262.81 1103.06,-262.62 1105.64,-262.41"/>
<polygon fill="black" stroke="black" points="1105.98,-265.9 1115.66,-261.6 1105.41,-258.92 1105.98,-265.9"/>
<text text-anchor="middle" x="1005.5" y="-292.8" font-family="Times,serif" font-size="14.00">2. 映射到设备</text>
<text text-anchor="middle" x="1005.5" y="-277.8" font-family="Times,serif" font-size="14.00">device_type + logic_index</text>
</g>
<!-- mcu -->
<g id="node6" class="node">
<title>mcu</title>
<polygon fill="#90caf9" stroke="black" points="1233,-211.5 1122,-211.5 1122,-158.5 1233,-158.5 1233,-211.5"/>
<text text-anchor="middle" x="1177.5" y="-196.3" font-family="Arial" font-size="14.00">MCU[0]</text>
<text text-anchor="middle" x="1177.5" y="-181.3" font-family="Arial" font-size="14.00">微控制器</text>
<text text-anchor="middle" x="1177.5" y="-166.3" font-family="Arial" font-size="14.00">CAN0: 500kbps</text>
</g>
<!-- tc_table&#45;&gt;mcu -->
<g id="edge4" class="edge">
<title>tc_table&#45;&gt;mcu</title>
<path fill="none" stroke="black" d="M854.74,-254.74C874.23,-250.79 894.08,-247.07 913,-244 994.64,-230.77 1018.62,-247.2 1098,-224 1105.5,-221.81 1113.14,-218.93 1120.58,-215.72"/>
<polygon fill="black" stroke="black" points="1122.19,-218.83 1129.86,-211.52 1119.3,-212.46 1122.19,-218.83"/>
<text text-anchor="middle" x="1005.5" y="-247.8" font-family="Times,serif" font-size="14.00">2. 映射到设备</text>
</g>
<!-- tm_table&#45;&gt;bmc -->
<g id="edge5" class="edge">
<title>tm_table&#45;&gt;bmc</title>
<path fill="none" stroke="black" d="M895.08,-170.19C993.01,-178.83 1095.85,-188.28 1098,-190 1109.3,-199.05 1098.62,-209.98 1108,-221 1108.41,-221.48 1108.82,-221.95 1109.24,-222.41"/>
<polygon fill="black" stroke="black" points="1107.01,-225.12 1116.67,-229.46 1111.83,-220.04 1107.01,-225.12"/>
<text text-anchor="middle" x="1005.5" y="-208.8" font-family="Times,serif" font-size="14.00">2. 映射到设备</text>
<text text-anchor="middle" x="1005.5" y="-193.8" font-family="Times,serif" font-size="14.00">+ 数据类型 + 有效期</text>
</g>
<!-- tm_table&#45;&gt;mcu -->
<g id="edge6" class="edge">
<title>tm_table&#45;&gt;mcu</title>
<path fill="none" stroke="black" d="M895.43,-142.72C959.63,-141.58 1032.52,-144.2 1098,-156 1102.67,-156.84 1107.42,-157.94 1112.17,-159.22"/>
<polygon fill="black" stroke="black" points="1111.28,-162.6 1121.86,-162.06 1113.25,-155.89 1111.28,-162.6"/>
<text text-anchor="middle" x="1005.5" y="-159.8" font-family="Times,serif" font-size="14.00">2. 映射到设备</text>
</g>
<!-- mcu1 -->
<g id="node7" class="node">
<title>mcu1</title>
<polygon fill="#90caf9" stroke="black" points="1229.5,-140.5 1125.5,-140.5 1125.5,-87.5 1229.5,-87.5 1229.5,-140.5"/>
<text text-anchor="middle" x="1177.5" y="-125.3" font-family="Arial" font-size="14.00">MCU[1]</text>
<text text-anchor="middle" x="1177.5" y="-110.3" font-family="Arial" font-size="14.00">备份微控制器</text>
<text text-anchor="middle" x="1177.5" y="-95.3" font-family="Arial" font-size="14.00">UART: 115200</text>
</g>
<!-- sat -->
<g id="node8" class="node">
<title>sat</title>
<polygon fill="#90caf9" stroke="black" points="1228,-69.5 1127,-69.5 1127,-16.5 1228,-16.5 1228,-69.5"/>
<text text-anchor="middle" x="1177.5" y="-54.3" font-family="Arial" font-size="14.00">Satellite</text>
<text text-anchor="middle" x="1177.5" y="-39.3" font-family="Arial" font-size="14.00">卫星平台</text>
<text text-anchor="middle" x="1177.5" y="-24.3" font-family="Arial" font-size="14.00">CAN1: 1Mbps</text>
</g>
<!-- config_struct -->
<g id="node9" class="node">
<title>config_struct</title>
<polygon fill="#fff9c4" stroke="black" points="55,-370.5 55,-485.5 304,-485.5 304,-370.5 55,-370.5"/>
<text text-anchor="start" x="63" y="-470.3" font-family="Arial" font-size="14.00">aconfig_tc_config_t</text>
<polyline fill="none" stroke="black" points="55,-462.5 304,-462.5 "/>
<text text-anchor="start" x="63" y="-447.3" font-family="Arial" font-size="14.00">function: pmc_tc_function_t</text>
<polyline fill="none" stroke="black" points="55,-439.5 304,-439.5 "/>
<text text-anchor="start" x="63" y="-424.3" font-family="Arial" font-size="14.00">device_type: DEVICE_BMC/MCU/SAT</text>
<polyline fill="none" stroke="black" points="55,-416.5 304,-416.5 "/>
<text text-anchor="start" x="63" y="-401.3" font-family="Arial" font-size="14.00">logic_index: uint32_t</text>
<polyline fill="none" stroke="black" points="55,-393.5 304,-393.5 "/>
<text text-anchor="start" x="63" y="-378.3" font-family="Arial" font-size="14.00">enabled: bool</text>
</g>
<!-- tm_config_struct -->
<g id="node10" class="node">
<title>tm_config_struct</title>
<polygon fill="#fff9c4" stroke="black" points="55,-504.5 55,-711.5 304,-711.5 304,-504.5 55,-504.5"/>
<text text-anchor="start" x="63" y="-696.3" font-family="Arial" font-size="14.00">aconfig_tm_config_t</text>
<polyline fill="none" stroke="black" points="55,-688.5 304,-688.5 "/>
<text text-anchor="start" x="63" y="-673.3" font-family="Arial" font-size="14.00">function: pmc_tm_function_t</text>
<polyline fill="none" stroke="black" points="55,-665.5 304,-665.5 "/>
<text text-anchor="start" x="63" y="-650.3" font-family="Arial" font-size="14.00">device_type: DEVICE_BMC/MCU/SAT</text>
<polyline fill="none" stroke="black" points="55,-642.5 304,-642.5 "/>
<text text-anchor="start" x="63" y="-627.3" font-family="Arial" font-size="14.00">logic_index: uint32_t</text>
<polyline fill="none" stroke="black" points="55,-619.5 304,-619.5 "/>
<text text-anchor="start" x="63" y="-604.3" font-family="Arial" font-size="14.00">data_type: CACHED/REALTIME</text>
<polyline fill="none" stroke="black" points="55,-596.5 304,-596.5 "/>
<text text-anchor="start" x="63" y="-581.3" font-family="Arial" font-size="14.00">validity_ms: uint32_t</text>
<polyline fill="none" stroke="black" points="55,-573.5 304,-573.5 "/>
<text text-anchor="start" x="63" y="-558.3" font-family="Arial" font-size="14.00">update_period_ms: uint32_t</text>
<polyline fill="none" stroke="black" points="55,-550.5 304,-550.5 "/>
<text text-anchor="start" x="63" y="-535.3" font-family="Arial" font-size="14.00">realtime_timeout_us: uint32_t</text>
<polyline fill="none" stroke="black" points="55,-527.5 304,-527.5 "/>
<text text-anchor="start" x="63" y="-512.3" font-family="Arial" font-size="14.00">enabled: bool</text>
</g>
<!-- perf -->
<g id="node11" class="node">
<title>perf</title>
<polygon fill="#fffde7" stroke="black" points="353,-951.5 0,-951.5 0,-730.5 359,-730.5 359,-945.5 353,-951.5"/>
<polyline fill="none" stroke="black" points="353,-951.5 353,-945.5 "/>
<polyline fill="none" stroke="black" points="359,-945.5 353,-945.5 "/>
<text text-anchor="middle" x="179.5" y="-936.3" font-family="Arial" font-size="14.00">性能特性：</text>
<text text-anchor="middle" x="179.5" y="-905.3" font-family="Arial" font-size="14.00">• O(1) 查找：数组索引</text>
<text text-anchor="middle" x="179.5" y="-890.3" font-family="Arial" font-size="14.00">• 查询时间：~5ns (1&#45;2 条指令)</text>
<text text-anchor="middle" x="179.5" y="-875.3" font-family="Arial" font-size="14.00">• 缓存友好：连续内存</text>
<text text-anchor="middle" x="179.5" y="-860.3" font-family="Arial" font-size="14.00">• 无锁设计：初始化后只读</text>
<text text-anchor="middle" x="179.5" y="-845.3" font-family="Arial" font-size="14.00">• 零拷贝：返回 const 指针</text>
<text text-anchor="middle" x="179.5" y="-814.3" font-family="Arial" font-size="14.00">示例：</text>
<text text-anchor="middle" x="179.5" y="-799.3" font-family="Arial" font-size="14.00">const aconfig_tc_config_t *cfg =</text>
<text text-anchor="middle" x="179.5" y="-784.3" font-family="Arial" font-size="14.00"> &#160;&#160;&#160;ACONFIG_GetTcConfig(TC_SERVER_POWER_ON);</text>
<text text-anchor="middle" x="179.5" y="-753.3" font-family="Arial" font-size="14.00">// cfg&#45;&gt;device_type = DEVICE_BMC</text>
<text text-anchor="middle" x="179.5" y="-738.3" font-family="Arial" font-size="14.00">// cfg&#45;&gt;logic_index = 0</text>
</g>
<!-- invalidation -->
<g id="node12" class="node">
<title>invalidation</title>
<polygon fill="#e1f5fe" stroke="black" points="317,-1160 36,-1160 36,-970 323,-970 323,-1154 317,-1160"/>
<polyline fill="none" stroke="black" points="317,-1160 317,-1154 "/>
<polyline fill="none" stroke="black" points="323,-1154 317,-1154 "/>
<text text-anchor="middle" x="179.5" y="-1144.8" font-family="Arial" font-size="14.00">遥测缓存失效：</text>
<text text-anchor="middle" x="179.5" y="-1113.8" font-family="Arial" font-size="14.00">遥控命令执行后，自动失效相关遥测缓存：</text>
<text text-anchor="middle" x="179.5" y="-1082.8" font-family="Arial" font-size="14.00">• TC_SERVER_POWER_ON 失效：</text>
<text text-anchor="middle" x="179.5" y="-1067.8" font-family="Arial" font-size="14.00"> &#160;&#45; TM_SERVER_POWER_STATUS</text>
<text text-anchor="middle" x="179.5" y="-1052.8" font-family="Arial" font-size="14.00"> &#160;&#45; TM_SERVER_CPU_TEMP</text>
<text text-anchor="middle" x="179.5" y="-1037.8" font-family="Arial" font-size="14.00"> &#160;</text>
<text text-anchor="middle" x="179.5" y="-1022.8" font-family="Arial" font-size="14.00">• TC_MCU_RESET 失效：</text>
<text text-anchor="middle" x="179.5" y="-1007.8" font-family="Arial" font-size="14.00"> &#160;&#45; TM_MCU_STATUS</text>
<text text-anchor="middle" x="179.5" y="-992.8" font-family="Arial" font-size="14.00"> &#160;</text>
<text text-anchor="middle" x="179.5" y="-977.8" font-family="Arial" font-size="14.00">确保遥测数据实时性</text>
</g>
</g>
</svg>
